<svg width="76" height="24" viewBox="0 0 76 24" fill="none" xmlns="http://www.w3.org/2000/svg">
<rect width="76" height="24" rx="12" fill="#E5E5EA"/>
<path d="M22.7129 16L23.5215 13.5977H26.498L27.3066 16H28.3848L25.5371 8.00195H24.4941L21.6465 16H22.7129ZM25.0273 9.20898L26.2227 12.7715H23.7969L24.998 9.20898H25.0273ZM29.1816 13.1992C29.1816 14.8398 30.1016 16.0996 31.7363 16.0996C33.1484 16.0996 33.9219 15.3613 34.127 14.3066H33.1367C33.0254 14.7988 32.5742 15.209 31.8066 15.209C30.8223 15.209 30.1895 14.4121 30.1895 13.2051V12.6309C30.1895 11.3887 30.7812 10.6328 31.8008 10.6328C32.4688 10.6328 32.9551 11.1074 33.0898 11.6289H34.0801C34.0273 10.6855 33.1602 9.74219 31.7363 9.74219C30.1309 9.74219 29.1816 10.9316 29.1816 12.5898V13.1992ZM36.084 9.8418H35.252V10.6855H36.0781V14.2773C36.0781 15.4902 36.377 16.0527 37.8359 16.0527C38.0469 16.0527 38.2578 16.0293 38.3457 16.0117V15.2031C38.2637 15.2148 38.1875 15.2148 38.0879 15.2148C37.332 15.2148 37.0859 15.0273 37.0859 14.2891V10.6855H38.3047V9.8418H37.0859V8.30664H36.084V9.8418ZM39.916 16H40.9238V9.8418H39.916V16ZM39.7754 8.35938C39.7754 8.7168 40.0625 8.99805 40.4199 8.99805C40.7773 8.99805 41.0703 8.7168 41.0703 8.35938C41.0703 7.99609 40.7773 7.71484 40.4199 7.71484C40.0625 7.71484 39.7754 7.99609 39.7754 8.35938ZM44.1875 16H45.2715L47.4805 9.8418H46.4609L44.7383 14.7871H44.7031L43.0977 9.8418H42.0312L44.1875 16ZM50.7383 16.0996C52.0977 16.0996 52.9121 15.3438 53.1465 14.3242H52.1445C51.9453 14.8984 51.4766 15.2559 50.7617 15.2559C49.7598 15.2559 49.1621 14.4531 49.1621 13.2812V13.1699H53.2285V12.5957C53.2285 10.9023 52.3027 9.74219 50.6914 9.74219C49.0742 9.74219 48.1543 10.9023 48.1543 12.5254V13.2168C48.1543 14.9688 49.1328 16.0996 50.7383 16.0996ZM49.1621 12.3555V12.3379C49.1621 11.3652 49.7598 10.5859 50.6973 10.5859C51.6172 10.5859 52.2207 11.3594 52.2207 12.3379V12.3555H49.1621Z" fill="#636366"/>
</svg>
