<svg width="39" height="24" viewBox="0 0 39 24" fill="none" xmlns="http://www.w3.org/2000/svg">
<g clip-path="url(#clip0_1930_1524)">
<path d="M37.4471 0C25.4783 0.0118143 13.5091 0.0145959 1.53957 0.00834127C0.494505 0.00834127 0.000976562 0.516006 0.000976562 1.58346V14.5336C0.000976562 17.1995 0.000976562 19.865 0.000976562 22.5302C0.000976562 23.4246 0.51791 23.9625 1.38693 23.9896C1.5009 23.9896 1.61487 23.9896 1.72884 23.9896C13.5715 23.9896 25.4135 23.9931 37.2548 24C38.0577 24 38.6642 23.7915 38.9989 23.0014V0.996572C38.6947 0.316903 38.2012 0 37.4471 0ZM37.6883 22.6292H1.31366V1.36976H37.6883V22.6292Z" fill="black"/>
<path d="M36.4031 8.13762C36.4031 7.26302 36.0134 6.796 35.182 6.61462C33.7778 6.30919 32.9006 5.43458 32.5689 4.00853C32.3318 2.99007 31.9756 2.68359 30.9601 2.68359H8.03893C7.0305 2.68359 6.66418 2.99632 6.4281 4.0127C6.09433 5.44292 5.21717 6.31648 3.8129 6.61879C2.97644 6.80017 2.5979 7.25676 2.5979 8.14179C2.5979 10.7131 2.5979 13.2876 2.5979 15.8652C2.5979 16.7492 2.9795 17.2068 3.819 17.3861C5.20699 17.6842 6.08517 18.5443 6.42301 19.9568C6.68148 21.0357 7.02135 21.3213 8.12238 21.3213H30.9275C31.9807 21.3213 32.3307 21.0263 32.5719 19.9932C32.9057 18.5641 33.7808 17.6874 35.1871 17.3872C36.0205 17.2079 36.4031 16.7481 36.4082 15.8652C36.4075 13.2904 36.4058 10.7145 36.4031 8.13762ZM35.0935 15.9559C34.5318 16.1904 33.968 16.3604 33.4654 16.647C32.3114 17.3111 31.594 18.341 31.3142 19.6701C31.2582 19.938 31.1503 19.9943 30.9071 19.9943C23.3024 19.9887 15.6983 19.9887 8.0949 19.9943C7.91988 19.9943 7.75401 20.0256 7.69499 19.7618C7.24013 17.728 5.9885 16.5188 4.01336 16.0716C3.98894 16.0664 3.96554 16.0549 3.9116 16.0372V7.97396C4.70177 7.83786 5.44576 7.50016 6.07499 6.99198C6.87427 6.35483 7.43081 5.45133 7.64818 4.43801C7.72348 4.08671 7.8517 4.02104 8.17224 4.02104C15.4989 4.02938 22.8255 4.03146 30.1521 4.02729C30.4441 4.02729 30.7372 4.01166 31.0272 4.03876C31.0823 4.05015 31.1339 4.07507 31.1775 4.11139C31.2211 4.14771 31.2554 4.19433 31.2775 4.24725C31.7487 6.33837 33.0593 7.52884 35.0884 8.00002L35.0935 15.9559Z" fill="black"/>
<path d="M19.5377 5.34767C15.9334 5.33933 13.018 8.28838 13.0089 11.9505C13.0003 12.8267 13.1613 13.6961 13.4828 14.5082C13.8043 15.3203 14.2797 16.059 14.8817 16.6817C15.4836 17.3044 16.2001 17.7986 16.9897 18.1357C17.7793 18.4729 18.6263 18.6463 19.4817 18.646C20.3373 18.6514 21.1855 18.483 21.9771 18.1504C22.7688 17.8179 23.4882 17.3279 24.0938 16.7088C24.6994 16.0896 25.1792 15.3536 25.5054 14.5433C25.8316 13.733 25.9978 12.8645 25.9943 11.988C25.994 10.2315 25.3145 8.54656 24.1045 7.30207C22.8944 6.05757 21.2523 5.35484 19.5377 5.34767ZM19.4899 17.319C18.8067 17.3194 18.1302 17.1814 17.4993 16.9127C16.8685 16.6441 16.2958 16.2502 15.8142 15.7538C15.3327 15.2573 14.9518 14.6682 14.6935 14.0203C14.4352 13.3723 14.3046 12.6785 14.3093 11.9786C14.3098 11.2755 14.4467 10.5795 14.7122 9.93112C14.9777 9.28274 15.3663 8.6949 15.8556 8.20182C16.3449 7.70874 16.925 7.32026 17.5622 7.05899C18.1994 6.79771 18.881 6.66885 19.5672 6.67991C20.9405 6.69476 22.2518 7.26761 23.2129 8.27254C24.1741 9.27748 24.7064 10.6322 24.6928 12.0391C24.685 13.4456 24.1328 14.7915 23.1573 15.7814C22.1819 16.7713 20.8629 17.3243 19.4899 17.319Z" fill="black"/>
<path d="M7.8344 9.34007C7.49094 9.33552 7.14999 9.40061 6.83118 9.53158C6.51237 9.66254 6.22199 9.85681 5.97676 10.1032C5.73152 10.3496 5.53627 10.6432 5.40224 10.9672C5.26821 11.2912 5.19805 11.6391 5.1958 11.991C5.19739 12.695 5.47026 13.3699 5.95505 13.8688C6.43984 14.3678 7.09734 14.6505 7.78454 14.6554C8.47195 14.6613 9.13351 14.3873 9.62387 13.8938C10.1142 13.4003 10.3933 12.7275 10.3997 12.0233C10.4065 11.3191 10.1401 10.6409 9.65913 10.1378C9.17811 9.6347 8.52181 9.34777 7.8344 9.34007ZM7.82728 13.3253C7.48186 13.3309 7.14831 13.1962 6.89949 12.9507C6.65067 12.7052 6.50682 12.3688 6.49933 12.015C6.49797 11.6613 6.63318 11.3214 6.87547 11.0695C7.11777 10.8176 7.44748 10.6741 7.79268 10.6702C7.96382 10.6684 8.13359 10.7016 8.29205 10.7679C8.4505 10.8341 8.59446 10.9321 8.71548 11.0561C8.8365 11.18 8.93215 11.3275 8.99683 11.4898C9.0615 11.6522 9.09391 11.8261 9.09214 12.0014C9.09406 12.3483 8.96228 12.6819 8.72544 12.9298C8.4886 13.1777 8.16584 13.3198 7.82728 13.3253Z" fill="black"/>
<path d="M31.2185 9.33996C30.8751 9.33664 30.5344 9.40328 30.2164 9.53601C29.8983 9.66874 29.6091 9.86491 29.3657 10.1131C29.1223 10.3613 28.9294 10.6566 28.7984 10.9818C28.6673 11.3071 28.6007 11.6557 28.6023 12.0076C28.6045 12.7116 28.8794 13.386 29.3668 13.8825C29.8541 14.379 30.5139 14.657 31.2012 14.6553C31.8892 14.6545 32.549 14.375 33.0366 13.8778C33.5243 13.3807 33.8002 12.7061 33.8042 12.0013C33.8026 11.2981 33.5301 10.624 33.0459 10.1257C32.5616 9.62728 31.9049 9.34491 31.2185 9.33996ZM31.2002 13.3242C31.0292 13.3251 30.8596 13.2911 30.7016 13.2241C30.5436 13.157 30.4002 13.0583 30.2799 12.9337C30.1596 12.8092 30.0648 12.6612 30.0011 12.4986C29.9374 12.3359 29.9061 12.1619 29.9089 11.9867C29.9089 11.8114 29.943 11.6379 30.0093 11.4763C30.0756 11.3147 30.1727 11.1683 30.295 11.0456C30.4173 10.923 30.5622 10.8266 30.7213 10.7621C30.8804 10.6977 31.0505 10.6664 31.2216 10.6701C31.5603 10.6763 31.8833 10.8173 32.1222 11.0633C32.3612 11.3092 32.4973 11.6408 32.5017 11.9877C32.5014 12.3416 32.3643 12.6808 32.1204 12.9313C31.8765 13.1818 31.5456 13.323 31.2002 13.3242Z" fill="black"/>
<path d="M20.4738 15.0427C20.2703 15.1574 20.1482 15.2689 20.1003 15.5201C20.0403 15.8329 19.795 15.9913 19.4796 15.9819C19.1641 15.9725 18.982 15.7912 18.869 15.4899C18.7961 15.3292 18.6923 15.1853 18.5638 15.0667C18.3501 14.8498 18.0865 14.6778 17.8983 14.4412C17.8376 14.374 17.7917 14.2943 17.7636 14.2074C17.7356 14.1205 17.7261 14.0284 17.7357 13.9374C17.7454 13.8464 17.774 13.7586 17.8195 13.6799C17.8651 13.6012 17.9267 13.5334 18 13.4811C18.2951 13.2601 18.6238 13.3341 18.9159 13.6281C19.0665 13.7948 19.2591 13.9156 19.4725 13.9773C19.8195 14.0472 20.1288 13.7125 20.1339 13.3394C20.1401 13.1819 20.0886 13.0278 19.9896 12.9073C19.8905 12.7868 19.7511 12.7085 19.5987 12.6878C19.387 12.6472 19.1672 12.6409 18.9606 12.5836C18.5835 12.4804 18.247 12.26 17.9973 11.9527C17.7476 11.6454 17.5971 11.2663 17.5665 10.8677C17.4902 10.0254 17.826 9.37392 18.5393 8.94652C18.7235 8.83498 18.8446 8.73178 18.8884 8.49515C18.9443 8.18242 19.1784 8.01459 19.4989 8.01563C19.8327 8.01563 20.023 8.20535 20.1329 8.52642C20.2 8.6778 20.2983 8.81256 20.4209 8.92151C20.661 9.16648 20.95 9.36767 21.1535 9.6387C21.2062 9.70871 21.2441 9.78915 21.2648 9.87492C21.2856 9.9607 21.2887 10.05 21.2741 10.137C21.2595 10.2241 21.2274 10.3072 21.1798 10.3809C21.1323 10.4546 21.0703 10.5175 20.9978 10.5654C20.7119 10.7645 20.3649 10.7041 20.1156 10.4091C20.0576 10.3413 20.0138 10.261 19.9477 10.2006C19.8545 10.1004 19.7316 10.0347 19.5981 10.0138C19.4646 9.99286 19.3281 10.0179 19.2099 10.0849C18.9443 10.2193 18.7846 10.4768 18.8843 10.7562C18.9616 10.9647 19.1692 11.145 19.3514 11.2972C19.4338 11.3671 19.5956 11.3389 19.7208 11.3546C20.1207 11.3983 20.4974 11.5687 20.7984 11.842C21.0993 12.1154 21.3095 12.4781 21.3998 12.8796C21.4953 13.2943 21.4567 13.7295 21.2897 14.1197C21.1226 14.5099 20.8363 14.8338 20.4738 15.0427Z" fill="black"/>
</g>
<defs>
<clipPath id="clip0_1930_1524">
<rect width="39" height="24" fill="white"/>
</clipPath>
</defs>
</svg>
