<svg width="17" height="11" viewBox="0 0 17 11" fill="none" xmlns="http://www.w3.org/2000/svg">
<path fill-rule="evenodd" clip-rule="evenodd" d="M15.9328 0.549134C16.1818 0.788181 16.1899 1.18383 15.9509 1.43283L11.7509 5.80783C11.633 5.9306 11.4702 6 11.3 6C11.1298 6 10.967 5.9306 10.8491 5.80783L8.3 3.15249L5.27919 6.29916L7.43141 8.36529L0.5 10.375L2.22524 3.36737L4.37746 5.4335L7.84913 1.81717C7.96699 1.6944 8.12982 1.625 8.3 1.625C8.47019 1.625 8.63301 1.6944 8.75087 1.81717L11.3 4.47252L15.0491 0.567168C15.2882 0.318161 15.6838 0.310087 15.9328 0.549134Z" fill="#EF4352"/>
</svg>
