<svg width="35" height="36" viewBox="0 0 35 36" fill="none" xmlns="http://www.w3.org/2000/svg">
<g clip-path="url(#clip0_1931_1560)">
<path d="M34.9661 35.5926C34.7917 34.6604 34.6158 33.7282 34.4382 32.796C33.9003 29.9423 33.3619 27.0886 32.823 24.2348C31.9449 19.55 31.0639 14.8659 30.1801 10.1826C30.0605 9.54924 30.0326 9.52954 29.3781 9.52954C27.1407 9.52954 24.905 9.52954 22.6708 9.52954C22.5359 9.52954 22.3911 9.56824 22.2674 9.47746C22.2555 9.35431 22.3373 9.28043 22.3953 9.19598C23.2015 7.92932 23.584 6.56414 23.3623 5.05118C23.1162 3.3454 22.2751 2.00696 20.9075 0.996443C20.095 0.395481 19.1833 0.0415184 18.1645 0H16.8361C16.5215 0.0809258 16.1914 0.0401112 15.8768 0.131593C14.9829 0.388074 14.1617 0.853032 13.4798 1.48874C12.7979 2.12445 12.2745 2.913 11.9521 3.79041C11.6296 4.66782 11.5173 5.60937 11.6241 6.53867C11.7309 7.46797 12.0539 8.35883 12.5668 9.13898C12.6368 9.24242 12.7388 9.3318 12.7332 9.47676C12.6179 9.56472 12.485 9.53024 12.3613 9.53024C11.2321 9.53024 10.1022 9.53024 8.97301 9.53024C7.79697 9.53024 6.62163 9.52672 5.44559 9.53024C5.01489 9.53024 4.94638 9.59498 4.85408 10.0116C4.8366 10.0918 4.82192 10.1727 4.80723 10.2529C3.83536 15.4322 2.8607 20.6105 1.88323 25.7879C1.26794 29.0559 0.65172 32.3239 0.034569 35.5919C0.00869899 35.727 -0.0402425 35.8684 0.0625382 35.9965H34.9374C35.0409 35.8691 34.9912 35.7277 34.9661 35.5926ZM17.5178 2.1097C18.4986 2.11889 19.4366 2.51546 20.1297 3.21398C20.8229 3.9125 21.2157 4.85708 21.2235 5.84425C21.2326 7.89624 19.5405 9.60061 17.4968 9.59991C15.4531 9.5992 13.7618 7.89413 13.7708 5.84354C13.779 4.84933 14.1775 3.89872 14.8795 3.19918C15.5815 2.49965 16.5299 2.10799 17.5178 2.1097ZM2.5971 33.879C2.88167 32.3626 3.16204 30.8595 3.44521 29.3563C4.22691 25.2087 5.00907 21.0611 5.7917 16.9135C6.10074 15.2715 6.40721 13.6281 6.71112 11.9833C6.74958 11.7722 6.83418 11.7054 7.05303 11.7061C14.0179 11.7127 20.9825 11.7127 27.9469 11.7061C28.1671 11.7061 28.2489 11.7765 28.2881 11.9841C29.1061 16.3634 29.927 20.7416 30.7506 25.1187C31.2932 28.0029 31.837 30.8881 32.3819 33.7742C32.3874 33.8059 32.3819 33.8382 32.3881 33.8826L2.5971 33.879Z" fill="black"/>
<path d="M13.2627 19.8438H11.8398V25.9927H16.3084V24.833H13.2627V19.8438Z" fill="black"/>
<path d="M21.942 22.8479C21.891 22.8253 21.8379 22.8056 21.784 22.7873C22.0114 22.6691 22.2054 22.4951 22.3483 22.2814C22.5088 22.032 22.5909 21.7397 22.5839 21.4426C22.5889 21.2163 22.5386 20.9923 22.4374 20.7902C22.3362 20.5881 22.1872 20.4141 22.0036 20.2836C21.6162 19.9908 21.0387 19.8442 20.271 19.8438H17.2861V25.9927H20.4458C21.2484 25.9927 21.8563 25.8447 22.2693 25.5487C22.6822 25.2526 22.889 24.8414 22.8894 24.3151C22.8998 23.9944 22.8114 23.6783 22.6363 23.4101C22.4624 23.1604 22.2216 22.9654 21.942 22.8479ZM20.0962 20.9155C20.4392 20.9155 20.7026 20.9741 20.8863 21.0914C21.0695 21.2089 21.161 21.3898 21.161 21.6361C21.1675 21.7438 21.1455 21.8514 21.0972 21.9478C21.049 22.0443 20.9762 22.1261 20.8863 22.185C20.7031 22.3051 20.4397 22.3651 20.0962 22.3651H18.6915V20.9155H20.0962ZM21.1785 24.7366C20.9869 24.86 20.7105 24.9214 20.3493 24.921H18.6915V23.4017H20.3493C20.7101 23.4017 20.9865 23.4631 21.1785 23.586C21.3706 23.709 21.4666 23.9022 21.4666 24.1659C21.4666 24.4234 21.3706 24.6137 21.1785 24.7366Z" fill="black"/>
</g>
<defs>
<clipPath id="clip0_1931_1560">
<rect width="35" height="36" fill="white"/>
</clipPath>
</defs>
</svg>
