<svg width="26" height="25" viewBox="0 0 26 25" fill="none" xmlns="http://www.w3.org/2000/svg">
<path d="M13.0653 0.171875C6.3382 0.171875 0.856445 5.65363 0.856445 12.3807C0.856445 19.1077 6.3382 24.5895 13.0653 24.5895C19.7923 24.5895 25.2741 19.1077 25.2741 12.3807C25.2741 5.65363 19.7923 0.171875 13.0653 0.171875ZM18.9011 9.57266L11.9787 16.4951C11.807 16.6665 11.5743 16.7628 11.3316 16.7628C11.089 16.7628 10.8562 16.6665 10.6845 16.4951L7.22944 13.04C7.05915 12.8676 6.96365 12.6352 6.96365 12.3929C6.96365 12.1506 7.05915 11.9181 7.22944 11.7458C7.5835 11.3918 8.16952 11.3918 8.52358 11.7458L11.3316 14.5539L17.6069 8.27852C17.961 7.92447 18.547 7.92447 18.9011 8.27852C19.2551 8.63258 19.2551 9.20639 18.9011 9.57266Z" fill="#1E3BB3"/>
</svg>
