<svg width="36" height="36" viewBox="0 0 36 36" fill="none" xmlns="http://www.w3.org/2000/svg">
<path d="M33.3988 17.4147C31.4525 17.4147 29.5061 17.4147 27.5597 17.4147H27.0957C27.1666 16.8887 27.28 16.4336 27.2813 15.9772C27.2942 11.5079 27.2968 7.03868 27.289 2.5694C27.289 0.928234 26.3532 0.00128921 24.7111 0H11.3456C9.60421 0 8.70063 0.90245 8.69934 2.64676C8.69934 7.07005 8.69935 11.4933 8.70708 15.9166C8.70708 16.3898 8.81536 16.8629 8.88238 17.4211H8.40289C6.45652 17.4211 4.51015 17.4211 2.56508 17.4211C0.906158 17.4211 0 18.3391 0 19.9905C0 24.4598 0 28.9312 0 33.4048C0 35.0808 0.912603 35.9923 2.5973 35.9923C6.89219 35.9923 11.1871 35.9845 15.4871 36C16.4178 36 17.3201 35.991 17.9994 35.2265C18.5807 35.8182 19.2458 36 20.0089 36C24.4791 35.9884 28.9506 36 33.422 35.9936C35.0668 35.9936 36 35.0679 36 33.4293C36 28.96 36 24.4908 36 20.0215C35.9936 18.3287 35.0848 17.4186 33.3988 17.4147ZM28.7972 18.6059V22.7624H24.6273V18.6059H28.7972ZM15.9176 1.18994H20.0669V5.36571H15.9176V1.18994ZM7.19382 18.6008H11.3688V22.7675H7.19382V18.6008ZM17.4103 33.2978C17.4103 34.471 17.0532 34.8294 15.8919 34.8294H2.62695C1.54291 34.8294 1.1575 34.4426 1.1575 33.3429V20.0279C1.1575 18.9605 1.5442 18.5763 2.60761 18.5724C3.71613 18.5724 4.82337 18.5724 6.00408 18.5724V19.1177C6.00408 20.4521 6.00408 21.7864 6.00408 23.1208C6.00408 23.7783 6.1768 23.9523 6.82903 23.9536C8.47033 23.9536 10.1108 23.9536 11.7504 23.9536C12.3949 23.9536 12.5508 23.7899 12.5521 23.1569C12.5521 21.8229 12.5521 20.4908 12.5521 19.1603V18.5789H14.3709C15.0154 18.5789 15.6598 18.5634 16.3043 18.5943C16.9707 18.6253 17.3574 19.0365 17.4051 19.7018C17.4154 19.8307 17.4129 19.9596 17.4129 20.0885C17.4129 24.489 17.412 28.8917 17.4103 33.2965V33.2978ZM11.2013 17.4108C10.299 17.4108 9.86072 16.9751 9.85943 16.0804C9.85943 11.5449 9.85943 7.00902 9.85943 2.47271C9.85943 1.60765 10.3119 1.15771 11.1665 1.15385C12.3265 1.15385 13.4866 1.15385 14.7215 1.15385V2.45595C14.7215 3.56596 14.7215 4.67598 14.7215 5.78599C14.7215 6.35711 14.9122 6.54405 15.4717 6.54534C17.1448 6.55049 18.8174 6.55049 20.4897 6.54534C21.0787 6.54534 21.2527 6.36485 21.2553 5.75634C21.2553 4.42071 21.2553 3.08509 21.2553 1.75075V1.15514H22.5714C23.2958 1.15514 24.0202 1.15514 24.7433 1.15514C25.6907 1.15514 26.1238 1.58831 26.1251 2.54749C26.1251 6.55178 26.1251 10.5569 26.1251 14.563C26.1251 15.0786 26.1328 15.5943 26.1251 16.11C26.1084 16.9777 25.6804 17.4147 24.8065 17.416C20.2735 17.4177 15.7385 17.4156 11.2013 17.4095V17.4108ZM34.836 20.0382V33.3494C34.836 34.4336 34.439 34.8281 33.3524 34.8281H20.0411C18.9571 34.8281 18.5704 34.4413 18.5704 33.3378C18.5704 28.9003 18.5704 24.4628 18.5704 20.0254C18.5704 18.963 18.9571 18.5763 20.0282 18.5724C20.9941 18.5724 21.9587 18.5724 22.922 18.5724C23.0779 18.5724 23.2326 18.5892 23.4376 18.6021V19.8835C23.4376 21.0077 23.4376 22.1332 23.4376 23.2587C23.4376 23.7525 23.618 23.9459 24.0988 23.9484C25.8355 23.957 27.5718 23.957 29.3076 23.9484C29.7974 23.9484 29.974 23.7434 29.9766 23.2071C29.9843 21.8573 29.9766 20.5062 29.9766 19.1564V18.6266C30.0498 18.6039 30.1248 18.5875 30.2009 18.5776C31.3262 18.5776 32.4527 18.5608 33.578 18.5776C34.3939 18.5892 34.8128 19.0327 34.8309 19.8449C34.8373 19.9093 34.836 19.9777 34.836 20.037V20.0382Z" fill="black"/>
</svg>
