<svg width="76" height="24" viewBox="0 0 76 24" fill="none" xmlns="http://www.w3.org/2000/svg">
<rect width="76" height="24" rx="12" fill="#E5E5EA"/>
<path d="M12.1641 11.5C12.1641 9.74219 12.9258 8.75195 14.291 8.75195C15.416 8.75195 16.1895 9.48438 16.2188 10.5508H17.2266V10.5332C17.2266 8.96289 15.9902 7.83203 14.2852 7.83203C12.3047 7.83203 11.1445 9.20312 11.1445 11.5V12.5488C11.1445 14.8223 12.3047 16.1699 14.2852 16.1699C15.9785 16.1699 17.2266 15.0859 17.2266 13.6094V13.5859H16.2188C16.1895 14.5762 15.416 15.25 14.291 15.25C12.9258 15.25 12.1641 14.2773 12.1641 12.5488V11.5ZM21.1113 9.74219C19.3887 9.74219 18.4629 10.9902 18.4629 12.6367V13.1875C18.4629 14.8574 19.3828 16.0996 21.1113 16.0996C22.8398 16.0996 23.748 14.8574 23.748 13.1875V12.6367C23.748 10.9902 22.834 9.74219 21.1113 9.74219ZM21.1113 10.6035C22.166 10.6035 22.7402 11.4121 22.7402 12.6719V13.1523C22.7402 14.4121 22.166 15.2266 21.1113 15.2266C20.0508 15.2266 19.4707 14.4062 19.4707 13.1523V12.6719C19.4707 11.4121 20.0508 10.6035 21.1113 10.6035ZM25.3066 16H26.3145V12.25C26.3145 11.4062 26.7715 10.6562 27.832 10.6562C28.7285 10.6562 29.3379 11.1836 29.3379 12.2207V16H30.3457V12.0508C30.3457 10.5508 29.4023 9.74219 28.1367 9.74219C27.1348 9.74219 26.5664 10.2637 26.3379 10.6562H26.3086V9.8418H25.3066V16ZM33.3281 16H34.4121L36.6211 9.8418H35.6016L33.8789 14.7871H33.8438L32.2383 9.8418H31.1719L33.3281 16ZM39.8789 16.0996C41.2383 16.0996 42.0527 15.3438 42.2871 14.3242H41.2852C41.0859 14.8984 40.6172 15.2559 39.9023 15.2559C38.9004 15.2559 38.3027 14.4531 38.3027 13.2812V13.1699H42.3691V12.5957C42.3691 10.9023 41.4434 9.74219 39.832 9.74219C38.2148 9.74219 37.2949 10.9023 37.2949 12.5254V13.2168C37.2949 14.9688 38.2734 16.0996 39.8789 16.0996ZM38.3027 12.3555V12.3379C38.3027 11.3652 38.9004 10.5859 39.8379 10.5859C40.7578 10.5859 41.3613 11.3594 41.3613 12.3379V12.3555H38.3027ZM43.8926 16H44.9062V12.1855C44.9062 11.3535 45.2461 10.6738 46.3359 10.6738C46.5234 10.6738 46.7227 10.6797 46.8281 10.6973V9.77734C46.7051 9.75977 46.5762 9.74805 46.4473 9.74805C45.5742 9.74805 45.1113 10.2285 44.9297 10.5977H44.9004V9.8418H43.8926V16ZM48.7441 9.8418H47.9121V10.6855H48.7383V14.2773C48.7383 15.4902 49.0371 16.0527 50.4961 16.0527C50.707 16.0527 50.918 16.0293 51.0059 16.0117V15.2031C50.9238 15.2148 50.8477 15.2148 50.748 15.2148C49.9922 15.2148 49.7461 15.0273 49.7461 14.2891V10.6855H50.9648V9.8418H49.7461V8.30664H48.7441V9.8418ZM54.7383 16.0996C56.0977 16.0996 56.9121 15.3438 57.1465 14.3242H56.1445C55.9453 14.8984 55.4766 15.2559 54.7617 15.2559C53.7598 15.2559 53.1621 14.4531 53.1621 13.2812V13.1699H57.2285V12.5957C57.2285 10.9023 56.3027 9.74219 54.6914 9.74219C53.0742 9.74219 52.1543 10.9023 52.1543 12.5254V13.2168C52.1543 14.9688 53.1328 16.0996 54.7383 16.0996ZM53.1621 12.3555V12.3379C53.1621 11.3652 53.7598 10.5859 54.6973 10.5859C55.6172 10.5859 56.2207 11.3594 56.2207 12.3379V12.3555H53.1621ZM60.9668 9.74805C59.4141 9.74805 58.5059 10.9668 58.5059 12.6426V13.1992C58.5059 14.916 59.3613 16.0938 60.9668 16.0938C61.793 16.0938 62.4375 15.707 62.7832 15.0742H62.8066V16H63.7734V7.58008H62.7656V10.6973H62.7363C62.4258 10.1523 61.7812 9.74805 60.9668 9.74805ZM61.1074 10.627C62.1445 10.627 62.7832 11.4355 62.7832 12.6777V13.1699C62.7832 14.4766 62.1562 15.2148 61.125 15.2148C60.1934 15.2148 59.5195 14.5352 59.5195 13.1641V12.6777C59.5195 11.3066 60.1934 10.627 61.1074 10.627Z" fill="#636366"/>
</svg>
