<svg width="18" height="9" viewBox="0 0 18 9" fill="none" xmlns="http://www.w3.org/2000/svg">
<path d="M9.00022 8.8C8.30022 8.8 7.60022 8.53 7.07022 8L0.550221 1.48C0.410741 1.33886 0.33252 1.14843 0.33252 0.949999C0.33252 0.751569 0.410741 0.561137 0.550221 0.419999C0.840221 0.129999 1.32022 0.129999 1.61022 0.419999L8.13022 6.94C8.61022 7.42 9.39022 7.42 9.87022 6.94L16.3902 0.419999C16.6802 0.129999 17.1602 0.129999 17.4502 0.419999C17.7402 0.709999 17.7402 1.19 17.4502 1.48L10.9302 8C10.4002 8.53 9.70022 8.8 9.00022 8.8Z" fill="#1E3BB3"/>
</svg>
