<svg width="71" height="71" viewBox="0 0 71 71" fill="none" xmlns="http://www.w3.org/2000/svg">
<path d="M11.1458 60.0352C24.7823 73.6718 47.0067 73.6718 60.6433 60.0352C74.2798 46.3986 74.2798 24.1743 60.6433 10.5377C47.0067 -3.09883 24.7823 -3.09883 11.1458 10.5377C-2.49076 24.1743 -2.49076 46.3986 11.1458 60.0352ZM27.8512 23.5308L35.8945 31.5742L43.9379 23.5308C44.9526 22.5161 46.6355 22.5161 47.6502 23.5308C48.6649 24.5455 48.6649 26.2284 47.6502 27.2431L39.6068 35.2865L47.6502 43.3298C48.6649 44.3445 48.6649 46.0274 47.6502 47.0421C46.6355 48.0568 44.9526 48.0568 43.9379 47.0421L35.8945 38.9988L27.8512 47.0421C26.8365 48.0568 25.1536 48.0568 24.1389 47.0421C23.1242 46.0274 23.1242 44.3445 24.1389 43.3298L32.1822 35.2865L24.1389 27.2431C23.1242 26.2284 23.1242 24.5455 24.1389 23.5308C25.1536 22.5161 26.8365 22.5161 27.8512 23.5308Z" fill="#FF0000" fill-opacity="0.5"/>
</svg>
