<svg width="24" height="24" viewBox="0 0 24 24" fill="none" xmlns="http://www.w3.org/2000/svg">
<path d="M22.0637 12.2235C22.0637 11.3961 21.9952 10.7924 21.8469 10.1663H12.2065V13.9005H17.8652C17.7512 14.8285 17.1351 16.2261 15.766 17.1652L15.7468 17.2902L18.795 19.6044L19.0061 19.625C20.9456 17.8696 22.0637 15.2869 22.0637 12.2235Z" fill="#4285F4"/>
<path d="M12.2048 22.0625C14.9771 22.0625 17.3045 21.168 19.0044 19.6251L15.7643 17.1653C14.8973 17.7579 13.7336 18.1716 12.2048 18.1716C9.48959 18.1716 7.18505 16.4163 6.36354 13.9901L6.24313 14.0001L3.07368 16.4039L3.03223 16.5168C4.72069 19.8039 8.18894 22.0625 12.2048 22.0625Z" fill="#34A853"/>
<path d="M6.3655 13.9902C6.14874 13.3641 6.02329 12.6932 6.02329 12C6.02329 11.3068 6.14874 10.636 6.3541 10.0099L6.34836 9.87652L3.13917 7.43408L3.03418 7.48303C2.33827 8.84707 1.93896 10.3788 1.93896 12C1.93896 13.6212 2.33827 15.1529 3.03418 16.5169L6.3655 13.9902Z" fill="#FBBC05"/>
<path d="M12.2049 5.82831C14.1329 5.82831 15.4335 6.64448 16.1751 7.32654L19.0729 4.55375C17.2932 2.93257 14.9772 1.9375 12.2049 1.9375C8.18897 1.9375 4.7207 4.19595 3.03223 7.48301L6.35216 10.0099C7.18507 7.58367 9.48962 5.82831 12.2049 5.82831Z" fill="#EB4335"/>
</svg>
