<svg width="76" height="24" viewBox="0 0 76 24" fill="none" xmlns="http://www.w3.org/2000/svg">
<rect width="76" height="24" rx="12" fill="#8E8E93"/>
<path d="M18.9863 16V8.00195H17.9609V16H18.9863ZM20.8379 16H21.8457V12.25C21.8457 11.4062 22.3027 10.6562 23.3633 10.6562C24.2598 10.6562 24.8691 11.1836 24.8691 12.2207V16H25.877V12.0508C25.877 10.5508 24.9336 9.74219 23.668 9.74219C22.666 9.74219 22.0977 10.2637 21.8691 10.6562H21.8398V9.8418H20.8379V16ZM31.0156 15.2324H31.0449V16H32.0117V11.752C32.0117 10.457 31.0566 9.74219 29.7441 9.74219C28.2559 9.74219 27.5234 10.5273 27.459 11.6055H28.4082C28.4668 10.9902 28.918 10.5859 29.709 10.5859C30.541 10.5859 31.0098 11.0312 31.0098 11.8398V12.4668H29.3867C27.9746 12.4727 27.2246 13.1523 27.2246 14.2305C27.2246 15.3613 28.0449 16.0996 29.2344 16.0996C30.1426 16.0996 30.7051 15.7305 31.0156 15.2324ZM29.5039 15.2617C28.8594 15.2617 28.2559 14.9219 28.2559 14.1953C28.2559 13.6387 28.6191 13.2402 29.4629 13.2402H31.0098V13.9551C31.0098 14.7227 30.3652 15.2617 29.5039 15.2617ZM33.5059 13.1992C33.5059 14.8398 34.4258 16.0996 36.0605 16.0996C37.4727 16.0996 38.2461 15.3613 38.4512 14.3066H37.4609C37.3496 14.7988 36.8984 15.209 36.1309 15.209C35.1465 15.209 34.5137 14.4121 34.5137 13.2051V12.6309C34.5137 11.3887 35.1055 10.6328 36.125 10.6328C36.793 10.6328 37.2793 11.1074 37.4141 11.6289H38.4043C38.3516 10.6855 37.4844 9.74219 36.0605 9.74219C34.4551 9.74219 33.5059 10.9316 33.5059 12.5898V13.1992ZM40.4082 9.8418H39.5762V10.6855H40.4023V14.2773C40.4023 15.4902 40.7012 16.0527 42.1602 16.0527C42.3711 16.0527 42.582 16.0293 42.6699 16.0117V15.2031C42.5879 15.2148 42.5117 15.2148 42.4121 15.2148C41.6562 15.2148 41.4102 15.0273 41.4102 14.2891V10.6855H42.6289V9.8418H41.4102V8.30664H40.4082V9.8418ZM44.2402 16H45.248V9.8418H44.2402V16ZM44.0996 8.35938C44.0996 8.7168 44.3867 8.99805 44.7441 8.99805C45.1016 8.99805 45.3945 8.7168 45.3945 8.35938C45.3945 7.99609 45.1016 7.71484 44.7441 7.71484C44.3867 7.71484 44.0996 7.99609 44.0996 8.35938ZM48.5117 16H49.5957L51.8047 9.8418H50.7852L49.0625 14.7871H49.0273L47.4219 9.8418H46.3555L48.5117 16ZM55.0625 16.0996C56.4219 16.0996 57.2363 15.3438 57.4707 14.3242H56.4688C56.2695 14.8984 55.8008 15.2559 55.0859 15.2559C54.084 15.2559 53.4863 14.4531 53.4863 13.2812V13.1699H57.5527V12.5957C57.5527 10.9023 56.627 9.74219 55.0156 9.74219C53.3984 9.74219 52.4785 10.9023 52.4785 12.5254V13.2168C52.4785 14.9688 53.457 16.0996 55.0625 16.0996ZM53.4863 12.3555V12.3379C53.4863 11.3652 54.084 10.5859 55.0215 10.5859C55.9414 10.5859 56.5449 11.3594 56.5449 12.3379V12.3555H53.4863Z" fill="white"/>
</svg>
