<svg width="35" height="36" viewBox="0 0 35 36" fill="none" xmlns="http://www.w3.org/2000/svg">
<g clip-path="url(#clip0_1825_4123)">
<path d="M34.9661 35.5945C34.7917 34.6623 34.6158 33.7302 34.4382 32.798C33.9007 29.9443 33.3623 27.0905 32.823 24.2368C31.9449 19.552 31.0639 14.8679 30.1801 10.1845C30.0605 9.55119 30.0326 9.53149 29.3781 9.53149C27.1407 9.53149 24.905 9.53149 22.6708 9.53149C22.5359 9.53149 22.3911 9.57019 22.2674 9.47941C22.2555 9.35627 22.3373 9.28238 22.3953 9.19793C23.2015 7.93127 23.5805 6.56609 23.3623 5.05313C23.1162 3.34735 22.2751 2.00891 20.9075 0.998396C20.095 0.397434 19.1833 0.0434716 18.1645 0.00195312H16.8361C16.5214 0.0828789 16.1914 0.0420644 15.8768 0.133546C14.9829 0.390027 14.1617 0.854985 13.4798 1.49069C12.7979 2.1264 12.2745 2.91495 11.9521 3.79236C11.6296 4.66977 11.5173 5.61133 11.6241 6.54063C11.7309 7.46992 12.0539 8.36079 12.5668 9.14093C12.6368 9.24438 12.7388 9.33375 12.7332 9.47871C12.6179 9.56668 12.485 9.53219 12.3613 9.53219C11.2321 9.53219 10.1022 9.53219 8.973 9.53219C7.79697 9.53219 6.62163 9.52867 5.44559 9.53219C5.01489 9.53219 4.94637 9.59693 4.85408 10.0135C4.8366 10.0937 4.82192 10.1747 4.80723 10.2549C3.83536 15.4341 2.86069 20.6125 1.88322 25.7898C1.26794 29.0578 0.65172 32.3258 0.034569 35.5938C0.00869899 35.7289 -0.0402425 35.8704 0.0625382 35.9984H34.9374C35.0409 35.8711 34.9912 35.7296 34.9661 35.5945ZM17.5192 2.11165C18.5 2.12085 19.438 2.51741 20.1311 3.21593C20.8243 3.91445 21.2171 4.85903 21.2249 5.8462C21.234 7.8982 19.5419 9.60256 17.4982 9.60186C15.4545 9.60116 13.7659 7.89327 13.7743 5.84127C13.7836 4.84816 14.1823 3.89895 14.8837 3.20038C15.5851 2.50182 16.5324 2.1105 17.5192 2.11165ZM2.59849 33.881C2.88306 32.3645 3.16344 30.8614 3.44661 29.3583C4.2283 25.2107 5.01046 21.0631 5.79309 16.9154C6.10213 15.2735 6.40861 13.6301 6.71252 11.9853C6.75098 11.7742 6.83558 11.7073 7.05443 11.708C14.0193 11.7146 20.9839 11.7146 27.9483 11.708C28.1685 11.708 28.2503 11.7784 28.2895 11.986C29.1075 16.3654 29.9284 20.7436 30.752 25.1206C31.2946 28.0048 31.8383 30.89 32.3832 33.7761C32.3888 33.8078 32.3833 33.8402 32.3895 33.8845L2.59849 33.881Z" fill="black"/>
<path d="M22.6941 22.5902C22.2794 22.5979 21.8641 22.5902 21.4495 22.5902V22.5965C21.0258 22.5965 20.6028 22.6022 20.1798 22.5965C20.0399 22.5965 19.984 22.6317 19.9903 22.7809C20.0015 23.0356 20.0029 23.2925 19.9903 23.5472C19.9826 23.7084 20.0232 23.7703 20.2001 23.7633C20.5552 23.7492 20.9111 23.759 21.267 23.759C21.6418 23.759 21.6222 23.759 21.6488 24.132C21.667 24.3875 21.5642 24.512 21.3488 24.6133C20.9455 24.8141 20.4966 24.9041 20.0476 24.8744C19.3086 24.8167 18.7653 24.4043 18.5695 23.714C18.4132 23.1795 18.4169 22.6104 18.58 22.0779C18.8192 21.2876 19.3589 20.8816 20.2077 20.8908C21.1866 20.8999 21.4768 21.313 21.6467 22.0047C21.6509 22.0216 21.653 22.0385 21.6579 22.054C21.6823 22.1286 21.7131 22.1588 21.8054 22.13C22.1039 22.0385 22.4067 21.9597 22.7087 21.8809C22.7982 21.8569 22.8332 21.8211 22.8094 21.7218C22.5997 20.8485 22.1648 20.1793 21.2614 19.8985C20.7989 19.7561 20.3121 19.7116 19.8316 19.7676C18.6507 19.8992 17.8172 20.4967 17.4124 21.6479C17.2893 22.0102 17.2168 22.388 17.197 22.7703C17.0964 24.3748 18.0046 25.6555 19.5044 25.9778C20.7286 26.241 21.8117 25.8976 22.7787 25.1292C22.8088 25.1071 22.8329 25.0775 22.8484 25.0434C22.864 25.0092 22.8705 24.9717 22.8675 24.9342C22.8675 24.2108 22.8626 23.486 22.8675 22.7619C22.864 22.6296 22.8269 22.5902 22.6941 22.5902Z" fill="black"/>
<path d="M15.0545 22.6265C14.9147 22.4386 14.9433 22.345 15.0993 22.1993C15.8439 21.4914 16.5752 20.7701 17.3136 20.0558C17.3767 20.0048 17.4441 19.9594 17.515 19.92L17.4604 19.8454C16.9885 19.8454 16.5172 19.8525 16.046 19.8419C15.9677 19.8365 15.8893 19.8491 15.8166 19.8787C15.7439 19.9083 15.6789 19.9542 15.6265 20.0129C14.9559 20.6997 14.2756 21.3767 13.5988 22.0537C13.5422 22.1099 13.503 22.1944 13.3842 22.2106V21.9558C13.3842 21.3169 13.3786 20.6779 13.3876 20.039C13.3876 19.8813 13.3464 19.8335 13.1891 19.8405C12.9017 19.8532 12.6136 19.8518 12.3256 19.8405C12.1857 19.8363 12.1389 19.8687 12.1396 20.0199C12.1447 21.9434 12.1447 23.8683 12.1396 25.7945C12.1396 25.9205 12.1634 25.9747 12.3032 25.9698C12.6081 25.9592 12.9136 25.9599 13.2177 25.9698C13.3576 25.974 13.3876 25.9205 13.3856 25.7917C13.3793 25.3695 13.417 24.9367 13.3744 24.5152C13.3268 24.0444 13.4715 23.7038 13.8407 23.4181C13.9882 23.3034 14.0337 23.2774 14.1498 23.447C14.6839 24.2337 15.2349 25.0092 15.7817 25.7861C15.8327 25.8565 15.86 25.9655 15.9767 25.9655C16.4718 25.9655 16.9661 25.9655 17.5066 25.9655C17.429 25.8579 17.3814 25.7903 17.3332 25.7249C16.5739 24.6911 15.8222 23.6525 15.0545 22.6265Z" fill="black"/>
</g>
<defs>
<clipPath id="clip0_1825_4123">
<rect width="35" height="36" fill="white"/>
</clipPath>
</defs>
</svg>
