<svg width="180" height="40" viewBox="0 0 1554 285" fill="none" xmlns="http://www.w3.org/2000/svg">
<g clip-path="url(#clip0_665_4317)">
<path d="M89.3335 1.46758C65.2002 5.06758 40.1335 19.0676 24.6668 37.7343C17.0668 47.0676 7.20017 66.0009 3.7335 78.0009C1.86684 84.6676 1.46684 94.1343 0.933502 136.668C0.400169 191.201 1.06684 200.268 6.9335 216.401C18.2668 247.868 43.3335 271.201 76.9335 281.601L86.6668 284.668L292.667 284.801C413.6 284.934 495.334 284.534 490.667 283.868C455.867 278.801 422.934 252.268 410.134 218.801C403.6 201.601 403.067 194.934 403.6 137.334C404.134 79.0676 404.267 77.8676 413.334 59.3343C428.534 28.4009 458.267 6.40092 492 1.46758C496.8 0.800911 418.534 0.267578 298.667 0.267578C188 0.267578 93.7335 0.800911 89.3335 1.46758ZM117.467 89.3343C124.8 93.0676 127.6 95.4676 131.6 101.334C144.134 119.601 139.867 143.068 121.867 155.334L115.6 159.601L128 173.468C143.067 190.134 144.267 192.134 142.534 197.068C141.2 200.934 138.4 202.001 133.334 200.801C131.734 200.401 122.934 191.734 113.867 181.468L97.3335 162.801L80.4002 162.668H63.3335V178.268C63.3335 196.934 62.0002 200.401 55.3335 201.068C47.2002 201.868 47.3335 202.534 47.3335 143.068C47.3335 90.2676 47.3335 89.3343 50.1335 86.5343C52.8002 83.8676 54.0002 83.7343 80.6668 84.2676L108.267 84.6676L117.467 89.3343ZM249.2 86.1343C251.734 88.5343 252 96.1343 249.734 98.4009C247.6 100.534 165.734 100.668 161.867 98.6676C158.934 97.0676 158.267 88.2676 160.934 85.6009C162.134 84.4009 173.734 84.0009 204.8 84.0009C241.467 84.0009 247.467 84.2676 249.2 86.1343ZM277.334 87.2009C278.8 88.2676 289.867 108.668 302 132.534C314.134 156.401 324.267 176.001 324.667 176.001C325.067 176.001 335.2 156.401 347.2 132.534C370.534 85.8676 372.534 83.0676 379.2 86.8009C386 90.5343 385.2 92.8009 358 146.401C343.867 174.001 331.467 197.734 330.267 198.934C327.6 202.001 321.6 202.001 319.067 198.934C315.067 194.534 266 96.4009 266 92.9343C266 86.4009 272 83.3343 277.334 87.2009ZM248.4 136.801C251.6 138.934 252.267 143.868 250 148.134C248.667 150.534 246.667 150.668 206.267 150.668C159.6 150.668 158.934 150.534 158.934 142.934C158.934 134.534 158.134 134.668 203.867 134.668C239.334 134.668 245.867 134.934 248.4 136.801ZM248.4 187.468C251.6 189.601 252.267 194.534 250 198.801C248.667 201.201 246.667 201.334 206.267 201.334C159.6 201.334 158.934 201.201 158.934 193.601C158.934 185.201 158.134 185.334 203.867 185.334C239.334 185.334 245.867 185.601 248.4 187.468Z" fill="white"/>
<path d="M63.334 123.333V146.667H85.0673C106.4 146.667 106.933 146.533 112.267 143.067C125.2 134.667 127.333 117.2 116.4 107.067C110.133 101.2 104.667 100 83.334 100H63.334V123.333Z" fill="white"/>
<path d="M553.067 85.3329C550.667 86.2662 550 87.7329 550 91.0662C550 93.5996 550.8 96.2662 551.733 97.0662C552.667 97.8662 569.2 98.5329 594.8 98.7996C639.333 99.3329 640.667 99.1996 640.667 92.5329C640.667 85.5996 639.067 85.3329 604.133 85.3329C586.267 85.3329 568.133 85.0662 563.867 84.6662C559.6 84.2662 554.667 84.5329 553.067 85.3329Z" fill="white"/>
<path d="M1022.53 85.8674C1020.13 87.7341 1020 89.8674 1020 142.534C1020 185.6 1020.4 197.6 1021.73 198.934C1024.27 201.467 1098.53 202.134 1103.33 199.6C1107.87 197.334 1108.53 191.6 1104.4 188.8C1101.87 186.934 1096.4 186.667 1067.73 186.667H1034V138.267C1034 96.6674 1033.73 89.4674 1031.87 86.9341C1029.6 83.6008 1026.27 83.2008 1022.53 85.8674Z" fill="white"/>
<path d="M1127.2 86.401C1124.27 88.401 1123.87 93.201 1126.4 96.2677C1127.73 98.2677 1133.07 98.5344 1170 98.9344C1193.07 99.0677 1212.8 98.801 1213.73 98.2677C1214.53 97.601 1215.33 95.201 1215.33 92.801C1215.33 90.2677 1214.53 87.7344 1213.73 86.9344C1210.93 84.801 1130.27 84.2677 1127.2 86.401Z" fill="white"/>
<path d="M440.4 86.8004C438.133 88.0004 438 92.1337 438 143.333C438 196.533 438.133 198.667 440.533 200C444.267 201.867 445.6 201.733 448.667 198.667C451.067 196.267 451.333 194.267 451.333 178.667V161.333H469.067L486.667 161.467L502.667 179.467C522.933 202.4 524.8 203.733 529.2 199.2C534.133 194.267 531.6 190.267 506.4 162.533L503.2 159.067L509.867 154.933C537.733 137.6 530.133 93.7337 498 86.8004C489.333 84.9337 443.467 84.9337 440.4 86.8004ZM502.533 103.733C509.467 108.533 512.667 113.067 513.6 119.6C514.933 129.867 509.067 140.4 499.2 145.333C494.8 147.6 491.333 148 472.667 148H451.333V124V100.133L471.067 99.7337C495.067 99.2004 496 99.3337 502.533 103.733Z" fill="white"/>
<path d="M920 87.2009C912.4 89.0675 899.867 95.7342 893.2 101.734C887.733 106.401 887.067 112.134 891.6 115.201C896 118.268 898.533 117.868 904.133 112.668C928.133 91.3342 963.333 96.0009 980.8 122.934C994.533 144.268 987.6 173.334 965.067 187.734C946.267 199.734 924.133 197.868 903.6 182.401C898.8 178.801 897.467 178.401 894.267 179.468C891.333 180.534 890.533 181.601 890.267 185.601C889.867 190.134 890.4 190.934 896.933 195.868C915.733 210.001 937.733 213.601 960.667 206.401C967.6 204.268 982.533 194.001 988.4 187.201C999.867 174.401 1005.07 155.734 1002.13 138.401C1000.27 126.668 997.2 119.734 990.133 110.401C977.067 93.0675 960.933 85.2009 939.067 85.4675C932.267 85.4675 923.6 86.2675 920 87.2009Z" fill="white"/>
<path d="M704.133 88.1343C688 92.001 669.2 107.068 661.733 122.268C657.467 131.068 657.333 131.868 657.333 148.001C657.333 163.201 657.6 165.334 660.8 172.001C668.133 187.334 682.4 201.468 696 206.535C714.8 213.601 734.934 212.935 752 204.801C764 198.935 768.667 194.668 768.667 189.468C768.667 182.934 759.467 180.001 754.8 185.068C751.2 189.068 739.067 194.668 730.267 196.268C714.4 199.201 698.4 193.868 685.867 181.334C674.933 170.401 672 163.468 672 148.668C672.133 134.001 674.8 127.201 684.667 116.801C704.533 95.7343 735.2 95.0676 757.867 115.201C763.334 120.001 765.6 121.201 767.734 120.534C778.667 117.201 775.334 108.134 759.2 97.4676C747.734 89.7343 736.534 86.6676 721.467 86.801C714.8 86.9343 707.067 87.4676 704.133 88.1343Z" fill="white"/>
<path d="M779.6 88.267C775.333 92.5337 776.133 93.867 811.067 141.2L823.333 157.733V177.467C823.333 198.267 824.133 201.333 830 201.333C835.467 201.333 836.667 196.667 836.667 176V156.667L859.333 126.667C881.867 96.8004 884.4 92.267 880.4 88.267C877.867 85.7337 873.333 86.4004 870.4 89.6004C868.8 91.3337 859.333 103.467 849.333 116.667C839.333 129.867 830.667 140.8 830.133 141.067C829.467 141.2 821.333 131.067 812 118.4C802.533 105.733 793.067 93.3337 790.8 90.9337C786.667 86.5337 782.4 85.467 779.6 88.267Z" fill="white"/>
<path d="M553.067 136C550.533 137.067 550 138.267 550 142.533C550 147.067 550.533 148 553.067 148.533C554.667 148.933 573.867 149.467 595.733 149.867C633.867 150.533 635.6 150.4 638 148C641.2 144.8 641.467 140.933 638.533 138.133C636.8 136.267 631.2 136 598 136C576.8 136 558.8 135.733 557.733 135.467C556.8 135.067 554.667 135.333 553.067 136Z" fill="white"/>
<path d="M1128.13 136.668C1124.8 138.268 1123.6 145.468 1126.27 147.601C1127.33 148.535 1143.33 149.201 1170.4 149.468C1206.93 150.001 1212.93 149.735 1214 148.001C1215.87 145.068 1215.6 139.201 1213.6 137.601C1211.2 135.601 1131.87 134.801 1128.13 136.668Z" fill="white"/>
<path d="M550.933 187.601C550.4 188.001 550 190.668 550 193.468C550 197.734 550.533 198.668 553.067 199.201C554.667 199.601 573.867 200.268 595.6 200.668C634.4 201.468 635.2 201.468 637.867 198.801C641.2 195.468 641.467 191.601 638.533 188.801C636.8 186.934 630.8 186.668 594.133 186.668C570.8 186.668 551.333 187.068 550.933 187.601Z" fill="white"/>
<path d="M1126.27 188.267C1124.13 190.4 1124.27 196.667 1126.4 198.267C1128.8 200.267 1209.2 201.867 1212.67 200C1215.73 198.4 1216.4 190.933 1213.73 188.267C1211.47 186 1128.53 186 1126.27 188.267Z" fill="white"/>
<path d="M1153 2.5H486C431.048 2.5 386.5 47.0477 386.5 102V184C386.5 238.952 431.048 283.5 486 283.5H1153C1207.95 283.5 1252.5 238.952 1252.5 184V102C1252.5 47.0477 1207.95 2.5 1153 2.5Z" stroke="white" stroke-width="6"/>
</g>
<defs>
<clipPath id="clip0_665_4317">
<rect width="1254" height="285" fill="white"/>
</clipPath>
</defs>
</svg>
