<svg width="130" height="28" viewBox="0 0 1254 285" fill="none" xmlns="http://www.w3.org/2000/svg">
<path d="M89.3335 1.46678C65.2002 5.06678 40.1335 19.0668 24.6668 37.7335C17.0668 47.0668 7.20017 66.0001 3.7335 78.0001C1.86684 84.6668 1.46684 94.1335 0.933502 136.667C0.400169 191.2 1.06684 200.267 6.9335 216.4C18.2668 247.867 43.3335 271.2 76.9335 281.6L86.6668 284.667L292.667 284.8C413.6 284.933 495.334 284.533 490.667 283.867C455.867 278.8 422.934 252.267 410.134 218.8C403.6 201.6 403.067 194.933 403.6 137.333C404.134 79.0668 404.267 77.8668 413.334 59.3335C428.534 28.4001 458.267 6.40012 492 1.46678C496.8 0.800115 418.534 0.266782 298.667 0.266782C188 0.266782 93.7335 0.800115 89.3335 1.46678ZM117.467 89.3335C124.8 93.0668 127.6 95.4668 131.6 101.333C144.134 119.6 139.867 143.067 121.867 155.333L115.6 159.6L128 173.467C143.067 190.133 144.267 192.133 142.534 197.067C141.2 200.933 138.4 202 133.334 200.8C131.734 200.4 122.934 191.733 113.867 181.467L97.3335 162.8L80.4002 162.667H63.3335V178.267C63.3335 196.933 62.0002 200.4 55.3335 201.067C47.2002 201.867 47.3335 202.533 47.3335 143.067C47.3335 90.2668 47.3335 89.3335 50.1335 86.5335C52.8002 83.8668 54.0002 83.7335 80.6668 84.2668L108.267 84.6668L117.467 89.3335ZM249.2 86.1335C251.734 88.5335 252 96.1335 249.734 98.4001C247.6 100.533 165.734 100.667 161.867 98.6668C158.934 97.0668 158.267 88.2668 160.934 85.6001C162.134 84.4001 173.734 84.0001 204.8 84.0001C241.467 84.0001 247.467 84.2668 249.2 86.1335ZM277.334 87.2001C278.8 88.2668 289.867 108.667 302 132.533C314.134 156.4 324.267 176 324.667 176C325.067 176 335.2 156.4 347.2 132.533C370.534 85.8668 372.534 83.0668 379.2 86.8001C386 90.5335 385.2 92.8001 358 146.4C343.867 174 331.467 197.733 330.267 198.933C327.6 202 321.6 202 319.067 198.933C315.067 194.533 266 96.4001 266 92.9335C266 86.4001 272 83.3335 277.334 87.2001ZM248.4 136.8C251.6 138.933 252.267 143.867 250 148.133C248.667 150.533 246.667 150.667 206.267 150.667C159.6 150.667 158.934 150.533 158.934 142.933C158.934 134.533 158.134 134.667 203.867 134.667C239.334 134.667 245.867 134.933 248.4 136.8ZM248.4 187.467C251.6 189.6 252.267 194.533 250 198.8C248.667 201.2 246.667 201.333 206.267 201.333C159.6 201.333 158.934 201.2 158.934 193.6C158.934 185.2 158.134 185.333 203.867 185.333C239.334 185.333 245.867 185.6 248.4 187.467Z" fill="#3B71CA"/>
<path d="M63.3335 123.333V146.667H85.0668C106.4 146.667 106.933 146.533 112.267 143.067C125.2 134.667 127.333 117.2 116.4 107.067C110.133 101.2 104.667 100 83.3335 100H63.3335V123.333Z" fill="#3B71CA"/>
<path d="M553.067 85.3335C550.667 86.2668 550 87.7335 550 91.0668C550 93.6002 550.8 96.2668 551.733 97.0668C552.667 97.8668 569.2 98.5335 594.8 98.8002C639.333 99.3335 640.667 99.2002 640.667 92.5335C640.667 85.6002 639.067 85.3335 604.133 85.3335C586.267 85.3335 568.133 85.0668 563.867 84.6668C559.6 84.2668 554.667 84.5335 553.067 85.3335Z" fill="#3B71CA"/>
<path d="M1022.53 85.8669C1020.13 87.7336 1020 89.8669 1020 142.534C1020 185.6 1020.4 197.6 1021.73 198.934C1024.27 201.467 1098.53 202.134 1103.33 199.6C1107.87 197.334 1108.53 191.6 1104.4 188.8C1101.87 186.934 1096.4 186.667 1067.73 186.667H1034V138.267C1034 96.6669 1033.73 89.4669 1031.87 86.9336C1029.6 83.6003 1026.27 83.2003 1022.53 85.8669Z" fill="#3B71CA"/>
<path d="M1127.2 86.4002C1124.27 88.4002 1123.87 93.2002 1126.4 96.2669C1127.73 98.2669 1133.07 98.5336 1170 98.9336C1193.07 99.0669 1212.8 98.8002 1213.73 98.2669C1214.53 97.6002 1215.33 95.2002 1215.33 92.8002C1215.33 90.2669 1214.53 87.7336 1213.73 86.9336C1210.93 84.8002 1130.27 84.2669 1127.2 86.4002Z" fill="#3B71CA"/>
<path d="M440.4 86.8002C438.133 88.0002 438 92.1335 438 143.333C438 196.533 438.133 198.667 440.533 200C444.267 201.867 445.6 201.733 448.667 198.667C451.067 196.267 451.333 194.267 451.333 178.667V161.333H469.067L486.667 161.467L502.667 179.467C522.933 202.4 524.8 203.733 529.2 199.2C534.133 194.267 531.6 190.267 506.4 162.533L503.2 159.067L509.867 154.933C537.733 137.6 530.133 93.7335 498 86.8002C489.333 84.9335 443.467 84.9335 440.4 86.8002ZM502.533 103.733C509.467 108.533 512.667 113.067 513.6 119.6C514.933 129.867 509.067 140.4 499.2 145.333C494.8 147.6 491.333 148 472.667 148H451.333V124V100.133L471.067 99.7335C495.067 99.2002 496 99.3335 502.533 103.733Z" fill="#3B71CA"/>
<path d="M920 87.2001C912.4 89.0667 899.867 95.7334 893.2 101.733C887.733 106.4 887.067 112.133 891.6 115.2C896 118.267 898.533 117.867 904.133 112.667C928.133 91.3334 963.333 96.0001 980.8 122.933C994.533 144.267 987.6 173.333 965.067 187.733C946.267 199.733 924.133 197.867 903.6 182.4C898.8 178.8 897.467 178.4 894.267 179.467C891.333 180.533 890.533 181.6 890.267 185.6C889.867 190.133 890.4 190.933 896.933 195.867C915.733 210 937.733 213.6 960.667 206.4C967.6 204.267 982.533 194 988.4 187.2C999.867 174.4 1005.07 155.733 1002.13 138.4C1000.27 126.667 997.2 119.733 990.133 110.4C977.067 93.0667 960.933 85.2001 939.067 85.4667C932.267 85.4667 923.6 86.2667 920 87.2001Z" fill="#3B71CA"/>
<path d="M704.133 88.1335C688 92.0002 669.2 107.067 661.733 122.267C657.467 131.067 657.333 131.867 657.333 148C657.333 163.2 657.6 165.333 660.8 172C668.133 187.333 682.4 201.467 696 206.534C714.8 213.6 734.934 212.934 752 204.8C764 198.934 768.667 194.667 768.667 189.467C768.667 182.933 759.467 180 754.8 185.067C751.2 189.067 739.067 194.667 730.267 196.267C714.4 199.2 698.4 193.867 685.867 181.333C674.933 170.4 672 163.467 672 148.667C672.133 134 674.8 127.2 684.667 116.8C704.533 95.7335 735.2 95.0668 757.867 115.2C763.334 120 765.6 121.2 767.734 120.533C778.667 117.2 775.334 108.133 759.2 97.4668C747.734 89.7335 736.534 86.6668 721.467 86.8002C714.8 86.9335 707.067 87.4668 704.133 88.1335Z" fill="#3B71CA"/>
<path d="M779.6 88.2668C775.333 92.5335 776.133 93.8668 811.067 141.2L823.333 157.733V177.467C823.333 198.267 824.133 201.333 830 201.333C835.467 201.333 836.667 196.667 836.667 176V156.667L859.333 126.667C881.867 96.8002 884.4 92.2668 880.4 88.2668C877.867 85.7335 873.333 86.4002 870.4 89.6002C868.8 91.3335 859.333 103.467 849.333 116.667C839.333 129.867 830.667 140.8 830.133 141.067C829.467 141.2 821.333 131.067 812 118.4C802.533 105.733 793.067 93.3335 790.8 90.9335C786.667 86.5335 782.4 85.4668 779.6 88.2668Z" fill="#3B71CA"/>
<path d="M553.067 136C550.533 137.067 550 138.267 550 142.533C550 147.067 550.533 148 553.067 148.533C554.667 148.933 573.867 149.467 595.733 149.867C633.867 150.533 635.6 150.4 638 148C641.2 144.8 641.467 140.933 638.533 138.133C636.8 136.267 631.2 136 598 136C576.8 136 558.8 135.733 557.733 135.467C556.8 135.067 554.667 135.333 553.067 136Z" fill="#3B71CA"/>
<path d="M1128.13 136.667C1124.8 138.267 1123.6 145.467 1126.27 147.6C1127.33 148.534 1143.33 149.2 1170.4 149.467C1206.93 150 1212.93 149.734 1214 148C1215.87 145.067 1215.6 139.2 1213.6 137.6C1211.2 135.6 1131.87 134.8 1128.13 136.667Z" fill="#3B71CA"/>
<path d="M550.933 187.6C550.4 188 550 190.667 550 193.467C550 197.733 550.533 198.667 553.067 199.2C554.667 199.6 573.867 200.267 595.6 200.667C634.4 201.467 635.2 201.467 637.867 198.8C641.2 195.467 641.467 191.6 638.533 188.8C636.8 186.933 630.8 186.667 594.133 186.667C570.8 186.667 551.333 187.067 550.933 187.6Z" fill="#3B71CA"/>
<path d="M1126.27 188.267C1124.13 190.4 1124.27 196.667 1126.4 198.267C1128.8 200.267 1209.2 201.867 1212.67 200C1215.73 198.4 1216.4 190.933 1213.73 188.267C1211.47 186 1128.53 186 1126.27 188.267Z" fill="#3B71CA"/>
<rect x="386.5" y="2.5" width="866" height="281" rx="99.5" stroke="#3B71CA" stroke-width="3"/>
</svg>
