<svg width="196" height="40" viewBox="0 0 196 40" fill="none" xmlns="http://www.w3.org/2000/svg">
<path d="M45.0114 30L40.6994 22.384H38.8514V30H34.9314V10.456H42.2674C43.7794 10.456 45.0674 10.7267 46.1314 11.268C47.1954 11.7907 47.9887 12.5093 48.5114 13.424C49.0527 14.32 49.3234 15.328 49.3234 16.448C49.3234 17.736 48.9501 18.9027 48.2034 19.948C47.4567 20.9747 46.3461 21.684 44.8714 22.076L49.5474 30H45.0114ZM38.8514 19.444H42.1274C43.1914 19.444 43.9847 19.192 44.5074 18.688C45.0301 18.1653 45.2914 17.4467 45.2914 16.532C45.2914 15.636 45.0301 14.9453 44.5074 14.46C43.9847 13.956 43.1914 13.704 42.1274 13.704H38.8514V19.444ZM67.2889 21.908C67.2889 22.468 67.2516 22.972 67.1769 23.42H55.8369C55.9302 24.54 56.3222 25.4173 57.0129 26.052C57.7036 26.6867 58.5529 27.004 59.5609 27.004C61.0169 27.004 62.0529 26.3787 62.6689 25.128H66.8969C66.4489 26.6213 65.5902 27.8533 64.3209 28.824C63.0516 29.776 61.4929 30.252 59.6449 30.252C58.1516 30.252 56.8076 29.9253 55.6129 29.272C54.4369 28.6 53.5129 27.6573 52.8409 26.444C52.1876 25.2307 51.8609 23.8307 51.8609 22.244C51.8609 20.6387 52.1876 19.2293 52.8409 18.016C53.4942 16.8027 54.4089 15.8693 55.5849 15.216C56.7609 14.5627 58.1142 14.236 59.6449 14.236C61.1196 14.236 62.4356 14.5533 63.5929 15.188C64.7689 15.8227 65.6742 16.728 66.3089 17.904C66.9622 19.0613 67.2889 20.396 67.2889 21.908ZM63.2289 20.788C63.2102 19.78 62.8462 18.9773 62.1369 18.38C61.4276 17.764 60.5596 17.456 59.5329 17.456C58.5622 17.456 57.7409 17.7547 57.0689 18.352C56.4156 18.9307 56.0142 19.7427 55.8649 20.788H63.2289ZM76.6181 26.388L80.5381 14.488H84.7101L78.9701 30H74.2101L68.4981 14.488H72.6981L76.6181 26.388ZM96.9919 30L92.6799 22.384H90.8319V30H86.9119V10.456H94.2479C95.7599 10.456 97.0479 10.7267 98.1119 11.268C99.1759 11.7907 99.9692 12.5093 100.492 13.424C101.033 14.32 101.304 15.328 101.304 16.448C101.304 17.736 100.931 18.9027 100.184 19.948C99.4372 20.9747 98.3265 21.684 96.8519 22.076L101.528 30H96.9919ZM90.8319 19.444H94.1079C95.1719 19.444 95.9652 19.192 96.4879 18.688C97.0105 18.1653 97.2719 17.4467 97.2719 16.532C97.2719 15.636 97.0105 14.9453 96.4879 14.46C95.9652 13.956 95.1719 13.704 94.1079 13.704H90.8319V19.444ZM119.269 21.908C119.269 22.468 119.232 22.972 119.157 23.42H107.817C107.911 24.54 108.303 25.4173 108.993 26.052C109.684 26.6867 110.533 27.004 111.541 27.004C112.997 27.004 114.033 26.3787 114.649 25.128H118.877C118.429 26.6213 117.571 27.8533 116.301 28.824C115.032 29.776 113.473 30.252 111.625 30.252C110.132 30.252 108.788 29.9253 107.593 29.272C106.417 28.6 105.493 27.6573 104.821 26.444C104.168 25.2307 103.841 23.8307 103.841 22.244C103.841 20.6387 104.168 19.2293 104.821 18.016C105.475 16.8027 106.389 15.8693 107.565 15.216C108.741 14.5627 110.095 14.236 111.625 14.236C113.1 14.236 114.416 14.5533 115.573 15.188C116.749 15.8227 117.655 16.728 118.289 17.904C118.943 19.0613 119.269 20.396 119.269 21.908ZM115.209 20.788C115.191 19.78 114.827 18.9773 114.117 18.38C113.408 17.764 112.54 17.456 111.513 17.456C110.543 17.456 109.721 17.7547 109.049 18.352C108.396 18.9307 107.995 19.7427 107.845 20.788H115.209ZM121.123 22.244C121.123 20.6387 121.449 19.2387 122.103 18.044C122.756 16.8307 123.661 15.8973 124.819 15.244C125.976 14.572 127.301 14.236 128.795 14.236C130.717 14.236 132.304 14.7213 133.555 15.692C134.824 16.644 135.673 17.988 136.103 19.724H131.875C131.651 19.052 131.268 18.5293 130.727 18.156C130.204 17.764 129.551 17.568 128.767 17.568C127.647 17.568 126.76 17.9787 126.107 18.8C125.453 19.6027 125.127 20.7507 125.127 22.244C125.127 23.7187 125.453 24.8667 126.107 25.688C126.76 26.4907 127.647 26.892 128.767 26.892C130.353 26.892 131.389 26.1827 131.875 24.764H136.103C135.673 26.444 134.824 27.7787 133.555 28.768C132.285 29.7573 130.699 30.252 128.795 30.252C127.301 30.252 125.976 29.9253 124.819 29.272C123.661 28.6 122.756 27.6667 122.103 26.472C121.449 25.2587 121.123 23.8493 121.123 22.244ZM153.814 14.488L144.21 37.336H140.038L143.398 29.608L137.182 14.488H141.578L145.582 25.324L149.642 14.488H153.814ZM154.919 22.244C154.919 20.6387 155.246 19.2387 155.899 18.044C156.553 16.8307 157.458 15.8973 158.615 15.244C159.773 14.572 161.098 14.236 162.591 14.236C164.514 14.236 166.101 14.7213 167.351 15.692C168.621 16.644 169.47 17.988 169.899 19.724H165.671C165.447 19.052 165.065 18.5293 164.523 18.156C164.001 17.764 163.347 17.568 162.563 17.568C161.443 17.568 160.557 17.9787 159.903 18.8C159.25 19.6027 158.923 20.7507 158.923 22.244C158.923 23.7187 159.25 24.8667 159.903 25.688C160.557 26.4907 161.443 26.892 162.563 26.892C164.15 26.892 165.186 26.1827 165.671 24.764H169.899C169.47 26.444 168.621 27.7787 167.351 28.768C166.082 29.7573 164.495 30.252 162.591 30.252C161.098 30.252 159.773 29.9253 158.615 29.272C157.458 28.6 156.553 27.6667 155.899 26.472C155.246 25.2587 154.919 23.8493 154.919 22.244ZM176.691 9.28V30H172.771V9.28H176.691ZM194.984 21.908C194.984 22.468 194.947 22.972 194.872 23.42H183.532C183.626 24.54 184.018 25.4173 184.708 26.052C185.399 26.6867 186.248 27.004 187.256 27.004C188.712 27.004 189.748 26.3787 190.364 25.128H194.592C194.144 26.6213 193.286 27.8533 192.016 28.824C190.747 29.776 189.188 30.252 187.34 30.252C185.847 30.252 184.503 29.9253 183.308 29.272C182.132 28.6 181.208 27.6573 180.536 26.444C179.883 25.2307 179.556 23.8307 179.556 22.244C179.556 20.6387 179.883 19.2293 180.536 18.016C181.19 16.8027 182.104 15.8693 183.28 15.216C184.456 14.5627 185.81 14.236 187.34 14.236C188.815 14.236 190.131 14.5533 191.288 15.188C192.464 15.8227 193.37 16.728 194.004 17.904C194.658 19.0613 194.984 20.396 194.984 21.908ZM190.924 20.788C190.906 19.78 190.542 18.9773 189.832 18.38C189.123 17.764 188.255 17.456 187.228 17.456C186.258 17.456 185.436 17.7547 184.764 18.352C184.111 18.9307 183.71 19.7427 183.56 20.788H190.924Z" fill="#3B71CA"/>
<path d="M12.8537 31.3579C11.169 30.9239 9.65835 29.9294 8.54135 28.5191C7.42435 27.1088 6.75925 25.3561 6.64276 23.5159H7.76606C7.80159 23.5164 7.83651 23.5061 7.86675 23.4863C7.897 23.4665 7.92134 23.4379 7.93693 23.4039C7.95252 23.37 7.95873 23.332 7.95483 23.2944C7.95094 23.2568 7.93709 23.2212 7.91492 23.1917L4.63037 18.7457C4.61295 18.7214 4.59045 18.7017 4.56467 18.6882C4.53888 18.6748 4.51051 18.6678 4.48177 18.668C4.45304 18.6676 4.42461 18.6744 4.39883 18.6879C4.37305 18.7014 4.35063 18.7212 4.33343 18.7457L1.04133 23.1922C1.01904 23.2217 1.00511 23.2573 1.00116 23.295C0.997208 23.3326 1.0034 23.3706 1.01901 23.4046C1.03462 23.4386 1.05901 23.4672 1.08932 23.487C1.11963 23.5068 1.15461 23.517 1.19018 23.5165H2.35605C2.4361 24.8359 2.78632 26.1207 3.38217 27.2809C3.97801 28.4412 4.80508 29.4487 5.80541 30.2331C6.80575 31.0174 7.95517 31.5595 9.17313 31.8214C10.3911 32.0833 11.6481 32.0586 12.8562 31.7492C12.8971 31.738 12.9333 31.7127 12.9593 31.6773C12.9853 31.642 12.9995 31.5984 12.9998 31.5535C12.9998 31.5081 12.9854 31.4641 12.9588 31.4286C12.9323 31.393 12.8952 31.3681 12.8537 31.3579Z" fill="#3B71CA" stroke="#3B71CA" stroke-width="0.7"/>
<path d="M23.9593 15.0446C23.6557 14.4481 23.2905 13.8945 22.8713 13.3956C22.8446 13.3641 22.8093 13.3438 22.7712 13.3378C22.733 13.3318 22.6942 13.3405 22.6609 13.3626C22.6277 13.3847 22.602 13.4188 22.588 13.4595C22.5741 13.5001 22.5726 13.5449 22.5839 13.5866C23.0264 15.29 22.9774 17.1087 22.444 18.7785C21.9106 20.4483 20.9205 21.8822 19.6177 22.8718L19.1088 21.8757C19.0928 21.8439 19.069 21.818 19.0403 21.801C19.0115 21.7841 18.9791 21.7769 18.9469 21.7802C18.915 21.783 18.8844 21.7958 18.8587 21.8173C18.8329 21.8387 18.813 21.8679 18.8011 21.9015L17.0105 26.9571C17.0016 26.9843 16.998 27.0134 17.0001 27.0424C17.0021 27.0713 17.0096 27.0994 17.0221 27.1248C17.0351 27.1501 17.0529 27.1717 17.0742 27.1882C17.0955 27.2048 17.1197 27.2157 17.1452 27.2203L21.9143 27.9997C21.9217 28.0018 21.9294 28.0026 21.9371 28.0022C21.9653 28.0022 21.9931 27.9944 22.018 27.9796C22.043 27.9648 22.0645 27.9433 22.0805 27.9171C22.0985 27.8867 22.1085 27.8512 22.1093 27.8146C22.1102 27.778 22.1017 27.742 22.0851 27.7106L21.5582 26.6758C23.1927 25.448 24.3513 23.5606 24.7975 21.399C25.2437 19.2374 24.9439 16.9646 23.9593 15.0446Z" fill="#3B71CA" stroke="#3B71CA" stroke-width="0.7"/>
<path d="M2.4338 14.641C2.46568 14.6569 2.50102 14.6656 2.53708 14.6665C2.56462 14.6665 2.59185 14.661 2.61702 14.6505C2.64218 14.6399 2.66472 14.6245 2.68319 14.6052C3.97004 13.3323 5.65399 12.4793 7.49037 12.1701C9.32676 11.8609 11.2199 12.1116 12.8948 12.8858L12.2903 13.8745C12.2714 13.9057 12.2621 13.9412 12.2637 13.9771C12.2652 14.0129 12.2774 14.0476 12.2989 14.0772C12.3204 14.1069 12.3503 14.1301 12.3853 14.1445C12.4202 14.1588 12.4587 14.1635 12.4963 14.1581L18.1588 13.3917C18.189 13.3878 18.2179 13.3776 18.2433 13.3616C18.2686 13.3457 18.2898 13.3245 18.3052 13.2997C18.3207 13.2743 18.3299 13.246 18.3323 13.2168C18.3347 13.1877 18.3302 13.1584 18.319 13.1311L16.1935 8.12093C16.18 8.08727 16.1565 8.05801 16.1258 8.0367C16.095 8.01538 16.0584 8.00293 16.0203 8.00085C15.9823 7.9974 15.9441 8.00452 15.9104 8.02132C15.8767 8.03812 15.8489 8.06387 15.8305 8.09538L15.2019 9.11989C14.0034 8.55985 12.6892 8.25397 11.3518 8.22375C10.0145 8.19353 8.68628 8.4397 7.46063 8.94496C6.23498 9.45022 5.14159 10.2023 4.25728 11.1484C3.37297 12.0945 2.7192 13.2116 2.3419 14.4213C2.32874 14.4623 2.33064 14.5063 2.34732 14.5462C2.364 14.5861 2.39447 14.6195 2.4338 14.641Z" fill="#3B71CA" stroke="#3B71CA" stroke-width="0.7"/>
</svg>
