<svg width="112" height="27" viewBox="0 0 112 27" fill="none" xmlns="http://www.w3.org/2000/svg">
<path d="M1.4 21V6.6H7.35C7.49 6.6 7.67 6.60667 7.89 6.62C8.11 6.62667 8.31333 6.64667 8.5 6.68C9.33333 6.80667 10.02 7.08333 10.56 7.51C11.1067 7.93667 11.51 8.47667 11.77 9.13C12.0367 9.77667 12.17 10.4967 12.17 11.29C12.17 12.4633 11.8733 13.4733 11.28 14.32C10.6867 15.16 9.77667 15.68 8.55 15.88L7.52 15.97H3.81V21H1.4ZM9.67 21L6.83 15.14L9.28 14.6L12.4 21H9.67ZM3.81 13.72H7.25C7.38333 13.72 7.53333 13.7133 7.7 13.7C7.86667 13.6867 8.02 13.66 8.16 13.62C8.56 13.52 8.87333 13.3433 9.1 13.09C9.33333 12.8367 9.49667 12.55 9.59 12.23C9.69 11.91 9.74 11.5967 9.74 11.29C9.74 10.9833 9.69 10.67 9.59 10.35C9.49667 10.0233 9.33333 9.73333 9.1 9.48C8.87333 9.22667 8.56 9.05 8.16 8.95C8.02 8.91 7.86667 8.88667 7.7 8.88C7.53333 8.86667 7.38333 8.86 7.25 8.86H3.81V13.72ZM19.5131 21.3C18.4198 21.3 17.4598 21.0633 16.6331 20.59C15.8065 20.1167 15.1598 19.46 14.6931 18.62C14.2331 17.78 14.0031 16.8133 14.0031 15.72C14.0031 14.54 14.2298 13.5167 14.6831 12.65C15.1365 11.7767 15.7665 11.1 16.5731 10.62C17.3798 10.14 18.3131 9.9 19.3731 9.9C20.4931 9.9 21.4431 10.1633 22.2231 10.69C23.0098 11.21 23.5931 11.9467 23.9731 12.9C24.3531 13.8533 24.4965 14.9767 24.4031 16.27H22.0131V15.39C22.0065 14.2167 21.7998 13.36 21.3931 12.82C20.9865 12.28 20.3465 12.01 19.4731 12.01C18.4865 12.01 17.7531 12.3167 17.2731 12.93C16.7931 13.5367 16.5531 14.4267 16.5531 15.6C16.5531 16.6933 16.7931 17.54 17.2731 18.14C17.7531 18.74 18.4531 19.04 19.3731 19.04C19.9665 19.04 20.4765 18.91 20.9031 18.65C21.3365 18.3833 21.6698 18 21.9031 17.5L24.2831 18.22C23.8698 19.1933 23.2298 19.95 22.3631 20.49C21.5031 21.03 20.5531 21.3 19.5131 21.3ZM15.7931 16.27V14.45H23.2231V16.27H15.7931ZM29.1638 21L25.2438 10.2H27.6538L30.3738 18.03L33.0838 10.2H35.5038L31.5838 21H29.1638Z" fill="black"/>
<path d="M37.2984 21V6.6H43.2484C43.3884 6.6 43.5684 6.60667 43.7884 6.62C44.0084 6.62667 44.2118 6.64667 44.3984 6.68C45.2318 6.80667 45.9184 7.08333 46.4584 7.51C47.0051 7.93667 47.4084 8.47667 47.6684 9.13C47.9351 9.77667 48.0684 10.4967 48.0684 11.29C48.0684 12.4633 47.7718 13.4733 47.1784 14.32C46.5851 15.16 45.6751 15.68 44.4484 15.88L43.4184 15.97H39.7084V21H37.2984ZM45.5684 21L42.7284 15.14L45.1784 14.6L48.2984 21H45.5684ZM39.7084 13.72H43.1484C43.2818 13.72 43.4318 13.7133 43.5984 13.7C43.7651 13.6867 43.9184 13.66 44.0584 13.62C44.4584 13.52 44.7718 13.3433 44.9984 13.09C45.2318 12.8367 45.3951 12.55 45.4884 12.23C45.5884 11.91 45.6384 11.5967 45.6384 11.29C45.6384 10.9833 45.5884 10.67 45.4884 10.35C45.3951 10.0233 45.2318 9.73333 44.9984 9.48C44.7718 9.22667 44.4584 9.05 44.0584 8.95C43.9184 8.91 43.7651 8.88667 43.5984 8.88C43.4318 8.86667 43.2818 8.86 43.1484 8.86H39.7084V13.72ZM55.4116 21.3C54.3182 21.3 53.3582 21.0633 52.5316 20.59C51.7049 20.1167 51.0582 19.46 50.5916 18.62C50.1316 17.78 49.9016 16.8133 49.9016 15.72C49.9016 14.54 50.1282 13.5167 50.5816 12.65C51.0349 11.7767 51.6649 11.1 52.4716 10.62C53.2782 10.14 54.2116 9.9 55.2716 9.9C56.3916 9.9 57.3416 10.1633 58.1216 10.69C58.9082 11.21 59.4916 11.9467 59.8716 12.9C60.2516 13.8533 60.3949 14.9767 60.3016 16.27H57.9116V15.39C57.9049 14.2167 57.6982 13.36 57.2916 12.82C56.8849 12.28 56.2449 12.01 55.3716 12.01C54.3849 12.01 53.6516 12.3167 53.1716 12.93C52.6916 13.5367 52.4516 14.4267 52.4516 15.6C52.4516 16.6933 52.6916 17.54 53.1716 18.14C53.6516 18.74 54.3516 19.04 55.2716 19.04C55.8649 19.04 56.3749 18.91 56.8016 18.65C57.2349 18.3833 57.5682 18 57.8016 17.5L60.1816 18.22C59.7682 19.1933 59.1282 19.95 58.2616 20.49C57.4016 21.03 56.4516 21.3 55.4116 21.3ZM51.6916 16.27V14.45H59.1216V16.27H51.6916ZM67.2228 21.3C66.1095 21.3 65.1595 21.0533 64.3728 20.56C63.5861 20.06 62.9828 19.38 62.5628 18.52C62.1495 17.66 61.9395 16.6867 61.9328 15.6C61.9395 14.4933 62.1561 13.5133 62.5828 12.66C63.0161 11.8 63.6295 11.1267 64.4228 10.64C65.2161 10.1467 66.1595 9.9 67.2528 9.9C68.4795 9.9 69.5161 10.21 70.3628 10.83C71.2161 11.4433 71.7728 12.2833 72.0328 13.35L69.6328 14C69.4461 13.42 69.1361 12.97 68.7028 12.65C68.2695 12.3233 67.7761 12.16 67.2228 12.16C66.5961 12.16 66.0795 12.31 65.6728 12.61C65.2661 12.9033 64.9661 13.31 64.7728 13.83C64.5795 14.35 64.4828 14.94 64.4828 15.6C64.4828 16.6267 64.7128 17.4567 65.1728 18.09C65.6328 18.7233 66.3161 19.04 67.2228 19.04C67.8628 19.04 68.3661 18.8933 68.7328 18.6C69.1061 18.3067 69.3861 17.8833 69.5728 17.33L72.0328 17.88C71.6995 18.98 71.1161 19.8267 70.2828 20.42C69.4495 21.0067 68.4295 21.3 67.2228 21.3ZM75.0661 25.8L77.1461 20.09L77.1861 21.77L72.4761 10.2H74.9861L78.3261 18.76H77.6861L80.9361 10.2H83.3461L77.3261 25.8H75.0661ZM89.1369 21.3C88.0235 21.3 87.0735 21.0533 86.2869 20.56C85.5002 20.06 84.8969 19.38 84.4769 18.52C84.0635 17.66 83.8535 16.6867 83.8469 15.6C83.8535 14.4933 84.0702 13.5133 84.4969 12.66C84.9302 11.8 85.5435 11.1267 86.3369 10.64C87.1302 10.1467 88.0735 9.9 89.1669 9.9C90.3935 9.9 91.4302 10.21 92.2769 10.83C93.1302 11.4433 93.6869 12.2833 93.9469 13.35L91.5469 14C91.3602 13.42 91.0502 12.97 90.6169 12.65C90.1835 12.3233 89.6902 12.16 89.1369 12.16C88.5102 12.16 87.9935 12.31 87.5869 12.61C87.1802 12.9033 86.8802 13.31 86.6869 13.83C86.4935 14.35 86.3969 14.94 86.3969 15.6C86.3969 16.6267 86.6269 17.4567 87.0869 18.09C87.5469 18.7233 88.2302 19.04 89.1369 19.04C89.7769 19.04 90.2802 18.8933 90.6469 18.6C91.0202 18.3067 91.3002 17.8833 91.4869 17.33L93.9469 17.88C93.6135 18.98 93.0302 19.8267 92.1969 20.42C91.3635 21.0067 90.3435 21.3 89.1369 21.3ZM95.8578 21V6.3H98.2678V21H95.8578ZM106.173 21.3C105.08 21.3 104.12 21.0633 103.293 20.59C102.467 20.1167 101.82 19.46 101.353 18.62C100.893 17.78 100.663 16.8133 100.663 15.72C100.663 14.54 100.89 13.5167 101.343 12.65C101.797 11.7767 102.427 11.1 103.233 10.62C104.04 10.14 104.973 9.9 106.033 9.9C107.153 9.9 108.103 10.1633 108.883 10.69C109.67 11.21 110.253 11.9467 110.633 12.9C111.013 13.8533 111.157 14.9767 111.063 16.27H108.673V15.39C108.667 14.2167 108.46 13.36 108.053 12.82C107.647 12.28 107.007 12.01 106.133 12.01C105.147 12.01 104.413 12.3167 103.933 12.93C103.453 13.5367 103.213 14.4267 103.213 15.6C103.213 16.6933 103.453 17.54 103.933 18.14C104.413 18.74 105.113 19.04 106.033 19.04C106.627 19.04 107.137 18.91 107.563 18.65C107.997 18.3833 108.33 18 108.563 17.5L110.943 18.22C110.53 19.1933 109.89 19.95 109.023 20.49C108.163 21.03 107.213 21.3 106.173 21.3ZM102.453 16.27V14.45H109.883V16.27H102.453Z" fill="#1E3BB3"/>
</svg>
