<svg width="21" height="20" viewBox="0 0 21 20" fill="none" xmlns="http://www.w3.org/2000/svg">
<path d="M7.16676 9.97653C7.1606 10.8473 6.40557 11.5545 5.48892 11.548C4.57228 11.5415 3.82735 10.8237 3.83351 9.95292C3.83968 9.08211 4.59471 8.37494 5.51135 8.38143C6.42799 8.38792 7.17293 9.10572 7.16676 9.97653ZM8.83339 9.98833C8.83956 9.11752 9.59458 8.41035 10.5112 8.41684C11.4279 8.42333 12.1728 9.14113 12.1666 10.0119C12.1605 10.8828 11.4054 11.5899 10.4888 11.5834C9.57216 11.5769 8.82722 10.8591 8.83339 9.98833ZM13.8333 10.0237C13.8394 9.15293 14.5945 8.44576 15.5111 8.45225C16.4277 8.45875 17.1727 9.17654 17.1665 10.0474C17.1603 10.9182 16.4053 11.6253 15.4887 11.6188C14.572 11.6123 13.8271 10.8946 13.8333 10.0237Z" fill="#3A3541" fill-opacity="0.54"/>
</svg>
