<svg width="71" height="71" viewBox="0 0 71 71" fill="none" xmlns="http://www.w3.org/2000/svg">
<path d="M35.8945 0.114746C16.6095 0.114746 0.894531 15.8297 0.894531 35.1147C0.894531 54.3997 16.6095 70.1147 35.8945 70.1147C55.1795 70.1147 70.8945 54.3997 70.8945 35.1147C70.8945 15.8297 55.1795 0.114746 35.8945 0.114746ZM52.6245 27.0647L32.7795 46.9097C32.2873 47.4013 31.6202 47.6774 30.9245 47.6774C30.2289 47.6774 29.5617 47.4013 29.0695 46.9097L19.1645 37.0047C18.6763 36.5108 18.4026 35.8443 18.4026 35.1497C18.4026 34.4552 18.6763 33.7887 19.1645 33.2947C20.1795 32.2797 21.8595 32.2797 22.8745 33.2947L30.9245 41.3447L48.9145 23.3547C49.9295 22.3397 51.6095 22.3397 52.6245 23.3547C53.6395 24.3697 53.6395 26.0147 52.6245 27.0647Z" fill="#21B31E" fill-opacity="0.5"/>
</svg>
