<svg width="24" height="24" viewBox="0 0 24 24" fill="none" xmlns="http://www.w3.org/2000/svg">
<path d="M9.00014 17.748C8.59014 17.748 8.25014 17.408 8.25014 16.998V12.808L7.53014 13.528C7.24014 13.818 6.76014 13.818 6.47014 13.528C6.33066 13.3869 6.25244 13.1964 6.25244 12.998C6.25244 12.7996 6.33066 12.6091 6.47014 12.468L8.47014 10.468C8.68014 10.258 9.01014 10.188 9.29014 10.308C9.57014 10.418 9.75014 10.698 9.75014 10.998V16.998C9.75014 17.408 9.41014 17.748 9.00014 17.748Z" fill="#1E3BB3"/>
<path d="M11.0001 13.751C10.8101 13.751 10.6201 13.681 10.4701 13.531L8.47014 11.531C8.33066 11.3899 8.25244 11.1994 8.25244 11.001C8.25244 10.8026 8.33066 10.6121 8.47014 10.471C8.76014 10.181 9.24014 10.181 9.53014 10.471L11.5301 12.471C11.8201 12.761 11.8201 13.241 11.5301 13.531C11.3801 13.681 11.1901 13.751 11.0001 13.751Z" fill="#1E3BB3"/>
<path d="M15 22.75H9C3.57 22.75 1.25 20.43 1.25 15V9C1.25 3.57 3.57 1.25 9 1.25H14C14.41 1.25 14.75 1.59 14.75 2C14.75 2.41 14.41 2.75 14 2.75H9C4.39 2.75 2.75 4.39 2.75 9V15C2.75 19.61 4.39 21.25 9 21.25H15C19.61 21.25 21.25 19.61 21.25 15V10C21.25 9.59 21.59 9.25 22 9.25C22.41 9.25 22.75 9.59 22.75 10V15C22.75 20.43 20.43 22.75 15 22.75Z" fill="#1E3BB3"/>
<path d="M22 10.748H18C14.58 10.748 13.25 9.418 13.25 5.99801V1.99801C13.25 1.69801 13.43 1.41801 13.71 1.30801C13.99 1.18801 14.31 1.25801 14.53 1.46801L22.53 9.46801C22.6343 9.57308 22.7052 9.70662 22.7338 9.85186C22.7624 9.9971 22.7474 10.1475 22.6908 10.2843C22.6342 10.4211 22.5384 10.5381 22.4155 10.6206C22.2926 10.7031 22.148 10.7474 22 10.748ZM14.75 3.80801V5.99801C14.75 8.57801 15.42 9.24801 18 9.24801H20.19L14.75 3.80801Z" fill="#1E3BB3"/>
</svg>
