<svg width="196" height="40" viewBox="0 0 196 40" fill="none" xmlns="http://www.w3.org/2000/svg">
<path d="M45.012 30L40.7 22.384H38.852V30H34.932V10.456H42.268C43.78 10.456 45.068 10.7267 46.132 11.268C47.196 11.7907 47.9893 12.5093 48.512 13.424C49.0533 14.32 49.324 15.328 49.324 16.448C49.324 17.736 48.9507 18.9027 48.204 19.948C47.4573 20.9747 46.3467 21.684 44.872 22.076L49.548 30H45.012ZM38.852 19.444H42.128C43.192 19.444 43.9853 19.192 44.508 18.688C45.0307 18.1653 45.292 17.4467 45.292 16.532C45.292 15.636 45.0307 14.9453 44.508 14.46C43.9853 13.956 43.192 13.704 42.128 13.704H38.852V19.444ZM67.2895 21.908C67.2895 22.468 67.2522 22.972 67.1775 23.42H55.8375C55.9308 24.54 56.3228 25.4173 57.0135 26.052C57.7042 26.6867 58.5535 27.004 59.5615 27.004C61.0175 27.004 62.0535 26.3787 62.6695 25.128H66.8975C66.4495 26.6213 65.5908 27.8533 64.3215 28.824C63.0522 29.776 61.4935 30.252 59.6455 30.252C58.1522 30.252 56.8082 29.9253 55.6135 29.272C54.4375 28.6 53.5135 27.6573 52.8415 26.444C52.1882 25.2307 51.8615 23.8307 51.8615 22.244C51.8615 20.6387 52.1882 19.2293 52.8415 18.016C53.4948 16.8027 54.4095 15.8693 55.5855 15.216C56.7615 14.5627 58.1148 14.236 59.6455 14.236C61.1202 14.236 62.4362 14.5533 63.5935 15.188C64.7695 15.8227 65.6748 16.728 66.3095 17.904C66.9628 19.0613 67.2895 20.396 67.2895 21.908ZM63.2295 20.788C63.2108 19.78 62.8468 18.9773 62.1375 18.38C61.4282 17.764 60.5602 17.456 59.5335 17.456C58.5628 17.456 57.7415 17.7547 57.0695 18.352C56.4162 18.9307 56.0148 19.7427 55.8655 20.788H63.2295ZM76.6188 26.388L80.5388 14.488H84.7108L78.9708 30H74.2108L68.4988 14.488H72.6988L76.6188 26.388ZM96.9925 30L92.6805 22.384H90.8325V30H86.9125V10.456H94.2485C95.7605 10.456 97.0485 10.7267 98.1125 11.268C99.1765 11.7907 99.9698 12.5093 100.492 13.424C101.034 14.32 101.304 15.328 101.304 16.448C101.304 17.736 100.931 18.9027 100.184 19.948C99.4378 20.9747 98.3271 21.684 96.8525 22.076L101.528 30H96.9925ZM90.8325 19.444H94.1085C95.1725 19.444 95.9658 19.192 96.4885 18.688C97.0111 18.1653 97.2725 17.4467 97.2725 16.532C97.2725 15.636 97.0111 14.9453 96.4885 14.46C95.9658 13.956 95.1725 13.704 94.1085 13.704H90.8325V19.444ZM119.27 21.908C119.27 22.468 119.233 22.972 119.158 23.42H107.818C107.911 24.54 108.303 25.4173 108.994 26.052C109.685 26.6867 110.534 27.004 111.542 27.004C112.998 27.004 114.034 26.3787 114.65 25.128H118.878C118.43 26.6213 117.571 27.8533 116.302 28.824C115.033 29.776 113.474 30.252 111.626 30.252C110.133 30.252 108.789 29.9253 107.594 29.272C106.418 28.6 105.494 27.6573 104.822 26.444C104.169 25.2307 103.842 23.8307 103.842 22.244C103.842 20.6387 104.169 19.2293 104.822 18.016C105.475 16.8027 106.39 15.8693 107.566 15.216C108.742 14.5627 110.095 14.236 111.626 14.236C113.101 14.236 114.417 14.5533 115.574 15.188C116.75 15.8227 117.655 16.728 118.29 17.904C118.943 19.0613 119.27 20.396 119.27 21.908ZM115.21 20.788C115.191 19.78 114.827 18.9773 114.118 18.38C113.409 17.764 112.541 17.456 111.514 17.456C110.543 17.456 109.722 17.7547 109.05 18.352C108.397 18.9307 107.995 19.7427 107.846 20.788H115.21ZM121.123 22.244C121.123 20.6387 121.45 19.2387 122.103 18.044C122.757 16.8307 123.662 15.8973 124.819 15.244C125.977 14.572 127.302 14.236 128.795 14.236C130.718 14.236 132.305 14.7213 133.555 15.692C134.825 16.644 135.674 17.988 136.103 19.724H131.875C131.651 19.052 131.269 18.5293 130.727 18.156C130.205 17.764 129.551 17.568 128.767 17.568C127.647 17.568 126.761 17.9787 126.107 18.8C125.454 19.6027 125.127 20.7507 125.127 22.244C125.127 23.7187 125.454 24.8667 126.107 25.688C126.761 26.4907 127.647 26.892 128.767 26.892C130.354 26.892 131.39 26.1827 131.875 24.764H136.103C135.674 26.444 134.825 27.7787 133.555 28.768C132.286 29.7573 130.699 30.252 128.795 30.252C127.302 30.252 125.977 29.9253 124.819 29.272C123.662 28.6 122.757 27.6667 122.103 26.472C121.45 25.2587 121.123 23.8493 121.123 22.244ZM153.815 14.488L144.211 37.336H140.039L143.399 29.608L137.183 14.488H141.579L145.583 25.324L149.643 14.488H153.815ZM154.92 22.244C154.92 20.6387 155.247 19.2387 155.9 18.044C156.553 16.8307 157.459 15.8973 158.616 15.244C159.773 14.572 161.099 14.236 162.592 14.236C164.515 14.236 166.101 14.7213 167.352 15.692C168.621 16.644 169.471 17.988 169.9 19.724H165.672C165.448 19.052 165.065 18.5293 164.524 18.156C164.001 17.764 163.348 17.568 162.564 17.568C161.444 17.568 160.557 17.9787 159.904 18.8C159.251 19.6027 158.924 20.7507 158.924 22.244C158.924 23.7187 159.251 24.8667 159.904 25.688C160.557 26.4907 161.444 26.892 162.564 26.892C164.151 26.892 165.187 26.1827 165.672 24.764H169.9C169.471 26.444 168.621 27.7787 167.352 28.768C166.083 29.7573 164.496 30.252 162.592 30.252C161.099 30.252 159.773 29.9253 158.616 29.272C157.459 28.6 156.553 27.6667 155.9 26.472C155.247 25.2587 154.92 23.8493 154.92 22.244ZM176.692 9.28V30H172.772V9.28H176.692ZM194.985 21.908C194.985 22.468 194.947 22.972 194.873 23.42H183.533C183.626 24.54 184.018 25.4173 184.709 26.052C185.399 26.6867 186.249 27.004 187.257 27.004C188.713 27.004 189.749 26.3787 190.365 25.128H194.593C194.145 26.6213 193.286 27.8533 192.017 28.824C190.747 29.776 189.189 30.252 187.341 30.252C185.847 30.252 184.503 29.9253 183.309 29.272C182.133 28.6 181.209 27.6573 180.537 26.444C179.883 25.2307 179.557 23.8307 179.557 22.244C179.557 20.6387 179.883 19.2293 180.537 18.016C181.19 16.8027 182.105 15.8693 183.281 15.216C184.457 14.5627 185.81 14.236 187.341 14.236C188.815 14.236 190.131 14.5533 191.289 15.188C192.465 15.8227 193.37 16.728 194.005 17.904C194.658 19.0613 194.985 20.396 194.985 21.908ZM190.925 20.788C190.906 19.78 190.542 18.9773 189.833 18.38C189.123 17.764 188.255 17.456 187.229 17.456C186.258 17.456 185.437 17.7547 184.765 18.352C184.111 18.9307 183.71 19.7427 183.561 20.788H190.925Z" fill="#FAFAFA"/>
<path d="M12.8537 31.3579C11.169 30.9239 9.65835 29.9294 8.54135 28.5191C7.42435 27.1088 6.75925 25.3561 6.64276 23.5159H7.76607C7.80159 23.5164 7.83651 23.5061 7.86675 23.4863C7.897 23.4665 7.92134 23.4379 7.93693 23.4039C7.95252 23.37 7.95873 23.332 7.95483 23.2944C7.95094 23.2568 7.93709 23.2212 7.91492 23.1917L4.63037 18.7457C4.61295 18.7214 4.59045 18.7017 4.56467 18.6882C4.53888 18.6748 4.51051 18.6678 4.48177 18.668C4.45304 18.6676 4.42461 18.6744 4.39883 18.6879C4.37305 18.7014 4.35064 18.7212 4.33343 18.7457L1.04133 23.1922C1.01904 23.2217 1.00511 23.2573 1.00116 23.295C0.997208 23.3326 1.0034 23.3706 1.01901 23.4046C1.03462 23.4386 1.05901 23.4672 1.08932 23.487C1.11963 23.5068 1.15461 23.517 1.19018 23.5165H2.35605C2.4361 24.8359 2.78632 26.1207 3.38217 27.2809C3.97801 28.4412 4.80508 29.4487 5.80541 30.2331C6.80575 31.0174 7.95517 31.5595 9.17313 31.8214C10.3911 32.0833 11.6481 32.0586 12.8562 31.7492C12.8971 31.738 12.9333 31.7127 12.9593 31.6773C12.9853 31.642 12.9995 31.5984 12.9998 31.5535C12.9998 31.5081 12.9854 31.4641 12.9588 31.4286C12.9323 31.393 12.8952 31.3681 12.8537 31.3579Z" fill="white" stroke="white" stroke-width="0.7"/>
<path d="M23.9593 15.0446C23.6557 14.4481 23.2905 13.8945 22.8713 13.3956C22.8446 13.3641 22.8093 13.3438 22.7712 13.3378C22.733 13.3318 22.6942 13.3405 22.6609 13.3626C22.6277 13.3847 22.602 13.4188 22.588 13.4595C22.5741 13.5001 22.5726 13.5449 22.5839 13.5866C23.0264 15.29 22.9774 17.1087 22.444 18.7785C21.9106 20.4483 20.9205 21.8822 19.6177 22.8718L19.1088 21.8757C19.0928 21.8439 19.069 21.818 19.0403 21.801C19.0115 21.7841 18.9791 21.7769 18.9469 21.7802C18.915 21.783 18.8844 21.7958 18.8587 21.8173C18.8329 21.8387 18.813 21.8679 18.8011 21.9015L17.0105 26.9571C17.0016 26.9843 16.998 27.0134 17.0001 27.0424C17.0021 27.0713 17.0096 27.0994 17.0221 27.1248C17.0351 27.1501 17.0529 27.1717 17.0742 27.1882C17.0955 27.2048 17.1197 27.2157 17.1452 27.2203L21.9143 27.9997C21.9217 28.0018 21.9294 28.0026 21.9371 28.0022C21.9653 28.0022 21.9931 27.9944 22.018 27.9796C22.043 27.9648 22.0645 27.9433 22.0805 27.9171C22.0985 27.8867 22.1085 27.8512 22.1093 27.8146C22.1102 27.778 22.1017 27.742 22.0851 27.7106L21.5582 26.6758C23.1927 25.448 24.3513 23.5606 24.7975 21.399C25.2437 19.2374 24.9439 16.9646 23.9593 15.0446Z" fill="white" stroke="white" stroke-width="0.7"/>
<path d="M2.4338 14.641C2.46568 14.6569 2.50102 14.6656 2.53708 14.6665C2.56462 14.6665 2.59185 14.661 2.61702 14.6505C2.64218 14.6399 2.66472 14.6245 2.68319 14.6052C3.97004 13.3323 5.65399 12.4793 7.49037 12.1701C9.32676 11.8609 11.2199 12.1116 12.8948 12.8858L12.2903 13.8745C12.2714 13.9057 12.2621 13.9412 12.2637 13.9771C12.2652 14.0129 12.2774 14.0476 12.2989 14.0772C12.3204 14.1069 12.3504 14.1301 12.3853 14.1445C12.4202 14.1588 12.4587 14.1635 12.4963 14.1581L18.1588 13.3917C18.189 13.3878 18.2179 13.3776 18.2433 13.3616C18.2686 13.3457 18.2898 13.3245 18.3052 13.2997C18.3207 13.2743 18.3299 13.246 18.3323 13.2168C18.3347 13.1877 18.3302 13.1584 18.319 13.1311L16.1935 8.12093C16.18 8.08727 16.1565 8.05801 16.1258 8.0367C16.095 8.01538 16.0584 8.00293 16.0203 8.00085C15.9823 7.9974 15.9441 8.00452 15.9104 8.02132C15.8767 8.03812 15.8489 8.06387 15.8305 8.09538L15.2019 9.11989C14.0034 8.55985 12.6892 8.25397 11.3518 8.22375C10.0145 8.19353 8.68628 8.4397 7.46063 8.94496C6.23498 9.45022 5.14159 10.2023 4.25728 11.1484C3.37297 12.0945 2.7192 13.2116 2.3419 14.4213C2.32874 14.4623 2.33064 14.5063 2.34732 14.5462C2.364 14.5861 2.39447 14.6195 2.4338 14.641Z" fill="white" stroke="white" stroke-width="0.7"/>
</svg>
